<svg aria-hidden="true" style="position:absolute;width:0;height:0;overflow:hidden" xmlns="http://www.w3.org/2000/svg">
  <defs>
    <symbol id="logo" viewBox="0 0 107 32">
      <path fill="#ff6b0a" style="fill:var(--color1, #ff6b0a)" d="M106.667 0v32H59.536V0h47.131zM74.42 8.811v13.927l.001.044a.842.842 0 0 1-.001.087c-.007.08.015.128.107.115a.485.485 0 0 1 .066-.001l.033.001h3.582c.075.001.112.001.129-.017s.016-.051.014-.116l-.001-.078V8.83l-.001-.033a.485.485 0 0 1 .001-.066c.008-.082-.02-.125-.109-.115-.018.002-.036.001-.054.001l-.028-.001h-3.55l-.062-.001c-.065-.001-.098-.001-.114.015s-.016.049-.015.116l.001.064zm19.579-.194h-5.863c-1.954 0-3.908 0-5.86-.002h-.133c-.066-.003-.089.028-.084.089a.486.486 0 0 1 0 .054v3.398c0 .072-.001.107.017.124s.051.017.118.016H85.923c.12 0 .18 0 .209.03s.029.087.029.2v10.335c-.001.059-.001.09.014.106.017.018.052.017.127.017h3.571c.111 0 .166 0 .193-.028s.027-.08.027-.186V12.488l-.001-.059c-.001-.063-.001-.097.015-.114.018-.019.055-.018.133-.018h3.798c.162 0 .162 0 .164-.159V8.759c.001-.072.001-.108-.016-.126s-.053-.017-.123-.016L94 8.618z"/>
      <path fill="#010101" style="fill:var(--color2, #010101)" d="m47.132 0 12.403 16-12.403 16H0V0h47.132zm-26.38 13.662.215.174a.371.371 0 0 0 .106-.107.256.256 0 0 1 .02-.026c.254-.302.507-.606.76-.91.507-.606 1.012-1.212 1.518-1.82.101-.122.097-.177-.018-.276a12.617 12.617 0 0 0-.277-.233c-.803-.657-1.685-1.17-2.684-1.467a9.43 9.43 0 0 0-2.043-.353c-.905-.061-1.802-.031-2.691.174-3.112.716-5.434 3.292-5.707 6.594a7.795 7.795 0 0 0 .225 2.638c.519 1.96 1.645 3.461 3.434 4.45.975.539 2.03.823 3.14.912.94.076 1.87.018 2.788-.189 1.553-.35 2.925-1.056 4.146-2.067a.333.333 0 0 0 .137-.289c-.004-1.572-.004-3.145-.003-4.717v-1.179a.66.66 0 0 0-.003-.062c-.003-.046-.006-.092.006-.134.015-.049-.012-.077-.037-.104-.021-.022-.042-.044-.039-.077.007-.054-.03-.062-.073-.062h-6.556l-.038.001c-.026.001-.052.002-.077-.001-.066-.007-.087.026-.083.087a.657.657 0 0 1 .001.077l-.001.038V17.839l-.001.074c-.001.063-.002.096.014.112s.052.017.125.016H19.772c.072-.001.107-.001.124.016.016.016.015.048.014.11l-.001.078v.679c0 .308 0 .311-.279.445-.818.391-1.681.503-2.573.391-.991-.123-1.784-.591-2.365-1.401-.378-.527-.585-1.122-.662-1.763-.097-.818.002-1.605.373-2.348.448-.892 1.125-1.533 2.098-1.827.682-.207 1.373-.153 2.056-.003.619.135 1.159.437 1.657.816.182.138.359.281.539.427zm18.346-2.98c-1.528-1.39-3.348-2.052-5.229-2.066-.869.002-1.518.072-2.207.251-1.998.521-3.563 1.638-4.602 3.422-1.067 1.83-1.283 3.793-.687 5.812.667 2.257 2.089 3.9 4.29 4.815 1.69.701 3.44.795 5.206.332 2.051-.537 3.624-1.725 4.654-3.578.869-1.562 1.102-3.238.778-4.987-.291-1.572-1.017-2.919-2.203-4zm-8.437 3.528c.666-1.227 1.729-1.815 2.762-1.838 2.094-.005 3.464 1.173 3.837 2.806.226.984.125 1.94-.358 2.834-.57 1.05-1.458 1.661-2.654 1.797-1.156.133-2.165-.194-2.99-1.025a3.579 3.579 0 0 1-.983-1.914c-.172-.928-.066-1.827.386-2.66z"/>
    </symbol>

    <symbol id="javascript" viewBox="0 0 32 32">
      <path fill="#f7df1e" style="fill:var(--color3, #f7df1e)" d="M0 0h32v32H0V0z"/>
      <path style="fill:var(--color4, #000)" d="m8.414 26.741 2.449-1.482c.473.838.902 1.546 1.933 1.546.988 0 1.611-.387 1.611-1.89V14.69h3.007v10.267c0 3.115-1.826 4.532-4.489 4.532-2.406 0-3.802-1.246-4.511-2.75zm10.634-.322 2.448-1.418c.645 1.053 1.482 1.826 2.964 1.826 1.246 0 2.041-.623 2.041-1.482 0-1.031-.816-1.396-2.191-1.997l-.752-.323c-2.17-.923-3.609-2.083-3.609-4.532 0-2.256 1.718-3.974 4.404-3.974 1.912 0 3.287.666 4.274 2.406l-2.341 1.504c-.516-.924-1.074-1.289-1.933-1.289-.881 0-1.439.558-1.439 1.289 0 .902.558 1.268 1.847 1.826l.752.322c2.556 1.096 3.995 2.212 3.995 4.726 0 2.707-2.127 4.189-4.983 4.189-2.792 0-4.597-1.332-5.477-3.072z"/>
    </symbol>

    <symbol id="icon-cloudy" viewBox="0 0 400.40960693359375 255.928955078125" fill="none">
      <path d="M204.544 153.529C204.572 171.178 200.011 188.53 191.309 203.884C187.814 210.1 183.669 215.927 178.944 221.266C178.796 221.458 178.634 221.638 178.458 221.804C162.512 239.609 140.835 251.266 117.19 254.752C93.5444 258.239 69.4249 253.333 49.0197 240.888C28.6144 228.443 13.2124 209.245 5.48812 186.626C-2.23613 164.008 -1.79466 139.399 6.73587 117.072C15.2664 94.7453 31.3472 76.1114 52.1856 64.4063C73.0241 52.7011 97.304 48.6641 120.809 52.9961C144.314 57.3282 165.559 69.7558 180.856 88.1207C196.152 106.486 204.533 129.628 204.544 153.529Z" fill="url(#paint0_linear_28_29)"></path>
      <path d="M297.83 60.1656C277.867 51.1827 255.549 48.8341 234.153 53.4645C212.757 58.0948 193.407 69.4604 178.944 85.8937C162.574 67.2606 139.977 55.2294 115.379 52.0504C124.679 35.5811 138.358 22.0091 154.9 12.8395C171.442 3.66981 190.201 -0.739259 209.096 0.101163C227.991 0.941586 246.284 6.99866 261.947 17.6008C277.609 28.2028 290.03 42.9357 297.83 60.1656Z" fill="url(#paint1_linear_28_29)"></path>
      <path d="M400.41 204.729C400.41 218.308 395.015 231.331 385.413 240.933C375.812 250.535 362.789 255.929 349.21 255.929H102.144C116.563 255.95 130.823 252.912 143.982 247.017C157.141 241.121 168.9 232.502 178.483 221.727H179.456L178.97 221.19C183.682 215.873 187.818 210.072 191.309 203.884C201.75 185.367 206.17 164.058 203.954 142.916C201.738 121.773 192.998 101.844 178.944 85.8936C192.696 70.3 210.869 59.2621 231.047 54.2476C251.225 49.2331 272.451 50.4797 291.903 57.8214C311.355 65.1632 328.111 78.2523 339.944 95.3484C351.776 112.444 358.125 132.737 358.144 153.529V154.399C369.975 156.496 380.691 162.686 388.418 171.887C396.145 181.088 400.39 192.714 400.41 204.729Z" fill="url(#paint2_linear_28_29)"></path>
      <defs>
        <linearGradient id="paint0_linear_28_29" x1="50.9184" y1="242.284" x2="153.344" y2="64.9017" gradientUnits="userSpaceOnUse">
          <stop stop-color="#838BC5"></stop>
          <stop offset="1" stop-color="#BCA2CB"></stop>
        </linearGradient>
        <linearGradient id="paint1_linear_28_29" x1="185.549" y1="92.5753" x2="237.235" y2="3.02645" gradientUnits="userSpaceOnUse">
          <stop stop-color="#838BC5"></stop>
          <stop offset="1" stop-color="#B89AC9"></stop>
        </linearGradient>
        <linearGradient id="paint2_linear_28_29" x1="197.837" y1="311.25" x2="331.827" y2="79.212" gradientUnits="userSpaceOnUse">
          <stop stop-color="#838BC5"></stop>
          <stop offset="1" stop-color="#B99BC9"></stop>
        </linearGradient>
      </defs>
    </symbol>

    <symbol id="icon-sun" viewBox="0 0 409.5999755859375 409.5999755859375" fill="none">
      <path d="M204.8 409.6C317.908 409.6 409.6 317.908 409.6 204.8C409.6 91.6921 317.908 0 204.8 0C91.6921 0 0 91.6921 0 204.8C0 317.908 91.6921 409.6 204.8 409.6Z" fill="url(#paint0_linear_28_25)"></path>
      <defs>
        <linearGradient id="paint0_linear_28_25" x1="27.4176" y1="307.226" x2="382.208" y2="102.374" gradientUnits="userSpaceOnUse">
          <stop stop-color="#FBB03B"></stop>
          <stop offset="1" stop-color="#F15E25"></stop>
        </linearGradient>
      </defs>
    </symbol>

    <symbol id="icon-partly-cloudy" viewBox="0 0 512 512" fill="none">
      <path d="M158.618 320.742C226.482 320.742 281.498 265.727 281.498 197.862C281.498 129.998 226.482 74.9824 158.618 74.9824C90.7529 74.9824 35.7376 129.998 35.7376 197.862C35.7376 265.727 90.7529 320.742 158.618 320.742Z" fill="url(#paint0_linear_28_38)"></path>
      <path d="M261.35 300.902C261.375 330.814 250.447 359.7 230.63 382.106C230.448 382.331 230.252 382.545 230.042 382.746C216.378 398.022 199.11 409.638 179.81 416.537C160.51 423.435 139.791 425.396 119.539 422.241C99.2876 419.087 80.1468 410.917 63.8594 398.475C47.572 386.033 34.6553 369.715 26.2854 351.006C17.9156 332.297 14.3583 311.792 15.9376 291.357C17.5169 270.922 24.1825 251.207 35.3276 234.006C46.4727 216.806 61.7432 202.666 79.7489 192.875C97.7546 183.083 117.923 177.951 138.419 177.946C143.735 177.95 149.045 178.292 154.317 178.97C183.904 182.83 211.075 197.324 230.761 219.746C250.447 242.169 261.301 270.988 261.299 300.826L261.35 300.902Z" fill="url(#paint1_linear_28_38)"></path>
      <path d="M373.299 188.774C349.339 177.988 322.552 175.165 296.87 180.722C271.188 186.279 247.963 199.921 230.605 219.648C210.968 197.303 183.869 182.87 154.368 179.046C165.528 159.286 181.942 143.001 201.791 131.999C221.639 120.996 244.148 115.705 266.819 116.713C289.491 117.72 311.441 124.986 330.236 137.706C349.031 150.426 363.936 168.102 373.299 188.774Z" fill="url(#paint2_linear_28_38)"></path>
      <path d="M496.41 362.342C496.41 378.637 489.936 394.265 478.414 405.787C466.892 417.309 451.265 423.782 434.97 423.782H138.47C155.77 423.821 172.882 420.19 188.675 413.13C204.468 406.069 218.585 395.74 230.093 382.822H231.245L230.682 382.182C250.452 359.741 261.359 330.861 261.359 300.954C261.359 271.046 250.452 242.166 230.682 219.725C247.185 201.012 268.994 187.766 293.209 181.749C317.424 175.732 342.896 177.229 366.24 186.041C389.583 194.853 409.69 210.562 423.888 231.08C438.086 251.598 445.701 275.951 445.722 300.902V301.952C459.912 304.474 472.764 311.905 482.03 322.944C491.296 333.984 496.386 347.93 496.41 362.342Z" fill="url(#paint3_linear_28_38)"></path>
      <defs>
        <linearGradient id="paint0_linear_28_38" x1="52.1728" y1="259.328" x2="265.037" y2="136.422" gradientUnits="userSpaceOnUse">
          <stop stop-color="#FBB03B"></stop>
          <stop offset="1" stop-color="#F15C24"></stop>
        </linearGradient>
        <linearGradient id="paint1_linear_28_38" x1="77.0304" y1="407.347" x2="199.91" y2="194.483" gradientUnits="userSpaceOnUse">
          <stop stop-color="#838BC5"></stop>
          <stop offset="1" stop-color="#B89AC9"></stop>
        </linearGradient>
        <linearGradient id="paint2_linear_28_38" x1="238.566" y1="227.661" x2="300.595" y2="120.218" gradientUnits="userSpaceOnUse">
          <stop stop-color="#838BC5"></stop>
          <stop offset="1" stop-color="#B69AC9"></stop>
        </linearGradient>
        <linearGradient id="paint3_linear_28_38" x1="253.312" y1="490.086" x2="414.08" y2="211.635" gradientUnits="userSpaceOnUse">
          <stop stop-color="#838BC5"></stop>
          <stop offset="1" stop-color="#B99BC9"></stop>
        </linearGradient>
      </defs>
    </symbol>

    <symbol id="icon-thunder" viewBox="0 0 400.691162109375 357.5352783203125" fill="none">
      <path d="M204.8 153.606C204.825 171.25 200.273 188.6 191.59 203.961C188.082 210.137 183.947 215.936 179.251 221.266L178.765 221.804C162.816 239.657 141.116 251.357 117.437 254.872C93.7571 258.388 69.5942 253.496 49.1469 241.046C28.6997 228.597 13.2604 209.377 5.51211 186.726C-2.23621 164.076 -1.80384 139.426 6.73408 117.061C15.272 94.6966 31.3758 76.0299 52.2471 64.3051C73.1184 52.5804 97.438 48.5386 120.98 52.8822C144.522 57.2258 165.797 69.6802 181.11 88.0811C196.423 106.482 204.805 129.667 204.8 153.606Z" fill="url(#paint0_linear_28_52)"></path>
      <path d="M298.086 60.1656C278.133 51.1617 255.818 48.7894 234.417 53.3967C213.017 58.004 193.655 69.3484 179.174 85.7657C162.795 67.18 140.208 55.1949 115.635 52.0505C124.935 35.5811 138.614 22.0091 155.156 12.8395C171.698 3.66981 190.457 -0.739259 209.352 0.101163C228.247 0.941586 246.54 6.99866 262.203 17.6008C277.865 28.2029 290.286 42.9357 298.086 60.1656Z" fill="url(#paint1_linear_28_52)"></path>
      <path d="M400.691 204.806C400.691 211.529 399.367 218.187 396.794 224.399C394.221 230.611 390.449 236.255 385.695 241.01C380.941 245.764 375.296 249.535 369.085 252.108C362.873 254.681 356.215 256.006 349.491 256.006H102.4C116.823 256.027 131.087 252.99 144.25 247.094C157.414 241.199 169.177 232.579 178.765 221.804H179.712C179.712 221.625 179.405 221.446 179.251 221.266C183.947 215.936 188.082 210.137 191.59 203.961C202.043 185.43 206.463 164.103 204.238 142.944C202.013 121.785 193.253 101.845 179.174 85.8936C192.927 70.3001 211.1 59.2621 231.278 54.2477C251.455 49.2332 272.681 50.4797 292.133 57.8214C311.585 65.1632 328.342 78.2523 340.174 95.3484C352.007 112.444 358.355 132.737 358.374 153.529V154.399C370.227 156.487 380.966 162.685 388.705 171.903C396.443 181.12 400.687 192.77 400.691 204.806Z" fill="url(#paint2_linear_28_52)"></path>
      <path d="M142.234 357.535L143.488 282.911L172.058 281.196L179.712 217.657L178.458 292.281L149.888 293.996L142.234 357.535Z" fill="url(#paint3_linear_28_52)"></path>
      <path d="M219.52 352.39L220.774 277.766L249.344 276.05L256.998 212.511L255.744 287.135L227.174 288.85L219.52 352.39Z" fill="url(#paint4_linear_28_52)"></path>
      <path d="M296.806 357.535L298.061 282.911L326.63 281.196L334.285 217.657L333.03 292.281L304.461 293.996L296.806 357.535Z" fill="url(#paint5_linear_28_52)"></path>
      <path d="M64.9216 357.535L66.176 282.911L94.7712 281.196L102.4 217.657L101.171 292.281L72.576 293.996L64.9216 357.535Z" fill="url(#paint6_linear_28_52)"></path>
      <defs>
        <linearGradient id="paint0_linear_28_52" x1="51.2" y1="242.31" x2="153.6" y2="64.9016" gradientUnits="userSpaceOnUse">
          <stop stop-color="#838BC5"></stop>
          <stop offset="1" stop-color="#B89AC9"></stop>
        </linearGradient>
        <linearGradient id="paint1_linear_28_52" x1="185.83" y1="92.5753" x2="237.517" y2="3.02646" gradientUnits="userSpaceOnUse">
          <stop stop-color="#838BC5"></stop>
          <stop offset="1" stop-color="#B89AC9"></stop>
        </linearGradient>
        <linearGradient id="paint2_linear_28_52" x1="198.118" y1="311.25" x2="332.083" y2="79.212" gradientUnits="userSpaceOnUse">
          <stop stop-color="#838BC5"></stop>
          <stop offset="1" stop-color="#B89AC9"></stop>
        </linearGradient>
        <linearGradient id="paint3_linear_28_52" x1="125.98" y1="348.188" x2="195.92" y2="227.049" gradientUnits="userSpaceOnUse">
          <stop stop-color="#FFFF00"></stop>
          <stop offset="1" stop-color="#E9A300"></stop>
        </linearGradient>
        <linearGradient id="paint4_linear_28_52" x1="203.295" y1="343.042" x2="273.235" y2="221.903" gradientUnits="userSpaceOnUse">
          <stop stop-color="#FFFF00"></stop>
          <stop offset="1" stop-color="#E9A300"></stop>
        </linearGradient>
        <linearGradient id="paint5_linear_28_52" x1="280.573" y1="348.176" x2="350.513" y2="227.037" gradientUnits="userSpaceOnUse">
          <stop stop-color="#FFFF00"></stop>
          <stop offset="1" stop-color="#E9A300"></stop>
        </linearGradient>
        <linearGradient id="paint6_linear_28_52" x1="48.6986" y1="348.17" x2="118.639" y2="227.031" gradientUnits="userSpaceOnUse">
          <stop stop-color="#FFFF00"></stop>
          <stop offset="1" stop-color="#E9A300"></stop>
        </linearGradient>
      </defs>
    </symbol>

    <symbol id="icon-rainy" viewBox="0 0 512 512" fill="none">
      <path d="M198.861 354.714C205.93 354.714 211.661 348.983 211.661 341.914C211.661 334.844 205.93 329.114 198.861 329.114C191.792 329.114 186.061 334.844 186.061 341.914C186.061 348.983 191.792 354.714 198.861 354.714Z" fill="url(#paint0_linear_29_63)"></path>
      <path d="M275.661 354.714C282.73 354.714 288.461 348.983 288.461 341.914C288.461 334.844 282.73 329.114 275.661 329.114C268.592 329.114 262.861 334.844 262.861 341.914C262.861 348.983 268.592 354.714 275.661 354.714Z" fill="url(#paint1_linear_29_63)"></path>
      <path d="M352.461 354.714C359.53 354.714 365.261 348.983 365.261 341.914C365.261 334.844 359.53 329.114 352.461 329.114C345.392 329.114 339.661 334.844 339.661 341.914C339.661 348.983 345.392 354.714 352.461 354.714Z" fill="url(#paint2_linear_29_63)"></path>
      <path d="M237.261 405.914C244.33 405.914 250.061 400.183 250.061 393.114C250.061 386.044 244.33 380.314 237.261 380.314C230.192 380.314 224.461 386.044 224.461 393.114C224.461 400.183 230.192 405.914 237.261 405.914Z" fill="url(#paint3_linear_29_63)"></path>
      <path d="M314.061 405.914C321.13 405.914 326.861 400.183 326.861 393.114C326.861 386.044 321.13 380.314 314.061 380.314C306.991 380.314 301.261 386.044 301.261 393.114C301.261 400.183 306.991 405.914 314.061 405.914Z" fill="url(#paint4_linear_29_63)"></path>
      <path d="M160.461 405.914C167.53 405.914 173.261 400.183 173.261 393.114C173.261 386.044 167.53 380.314 160.461 380.314C153.392 380.314 147.661 386.044 147.661 393.114C147.661 400.183 153.392 405.914 160.461 405.914Z" fill="url(#paint5_linear_29_63)"></path>
      <path d="M260.454 239.514C260.479 257.158 255.928 274.508 247.245 289.869C243.738 296.054 239.603 301.862 234.906 307.2L234.419 307.738C218.47 325.59 196.771 337.291 173.091 340.806C149.411 344.321 125.249 339.429 104.801 326.98C84.3541 314.53 68.9148 295.31 61.1665 272.66C53.4182 250.009 53.8506 225.36 62.3885 202.995C70.9264 180.63 87.0302 161.963 107.902 150.239C128.773 138.514 153.092 134.472 176.634 138.816C200.176 143.159 221.452 155.614 236.765 174.015C252.078 192.416 260.46 215.6 260.454 239.539V239.514Z" fill="url(#paint6_linear_29_63)"></path>
      <path d="M353.741 146.074C333.787 137.07 311.473 134.697 290.072 139.305C268.671 143.912 249.31 155.256 234.829 171.674C218.449 153.088 195.863 141.103 171.29 137.958C180.589 121.489 194.269 107.917 210.811 98.7474C227.353 89.5778 246.111 85.1687 265.006 86.0091C283.901 86.8495 302.194 92.9066 317.857 103.509C333.52 114.111 345.94 128.844 353.741 146.074Z" fill="url(#paint7_linear_29_63)"></path>
      <path d="M456.346 290.714C456.346 304.293 450.951 317.316 441.349 326.917C431.748 336.519 418.725 341.914 405.146 341.914H158.054C172.478 341.935 186.741 338.898 199.905 333.002C213.068 327.107 224.832 318.487 234.419 307.712H235.366C235.366 307.533 235.059 307.354 234.906 307.174C239.601 301.844 243.736 296.045 247.245 289.869C257.697 271.338 262.118 250.011 259.893 228.852C257.668 207.693 248.907 187.753 234.829 171.802C248.581 156.208 266.754 145.17 286.932 140.156C307.11 135.141 328.336 136.388 347.788 143.729C367.24 151.071 383.996 164.16 395.829 181.256C407.661 198.352 414.009 218.645 414.029 239.437V240.307C425.882 242.395 436.621 248.593 444.359 257.81C452.098 267.028 456.342 278.678 456.346 290.714Z" fill="url(#paint8_linear_29_63)"></path>
      <defs>
        <linearGradient id="paint0_linear_29_63" x1="192.461" y1="352.998" x2="205.261" y2="330.803" gradientUnits="userSpaceOnUse">
          <stop stop-color="#29ABE2"></stop>
          <stop offset="1" stop-color="#00FFFF"></stop>
        </linearGradient>
        <linearGradient id="paint1_linear_29_63" x1="269.261" y1="352.998" x2="282.061" y2="330.803" gradientUnits="userSpaceOnUse">
          <stop stop-color="#29ABE2"></stop>
          <stop offset="1" stop-color="#00FFFF"></stop>
        </linearGradient>
        <linearGradient id="paint2_linear_29_63" x1="346.061" y1="352.998" x2="358.861" y2="330.803" gradientUnits="userSpaceOnUse">
          <stop stop-color="#29ABE2"></stop>
          <stop offset="1" stop-color="#00FFFF"></stop>
        </linearGradient>
        <linearGradient id="paint3_linear_29_63" x1="230.861" y1="404.198" x2="243.661" y2="382.003" gradientUnits="userSpaceOnUse">
          <stop stop-color="#29ABE2"></stop>
          <stop offset="1" stop-color="#00FFFF"></stop>
        </linearGradient>
        <linearGradient id="paint4_linear_29_63" x1="307.661" y1="404.198" x2="320.461" y2="382.003" gradientUnits="userSpaceOnUse">
          <stop stop-color="#29ABE2"></stop>
          <stop offset="1" stop-color="#00FFFF"></stop>
        </linearGradient>
        <linearGradient id="paint5_linear_29_63" x1="154.061" y1="404.198" x2="166.861" y2="382.003" gradientUnits="userSpaceOnUse">
          <stop stop-color="#29ABE2"></stop>
          <stop offset="1" stop-color="#00FFFF"></stop>
        </linearGradient>
        <linearGradient id="paint6_linear_29_63" x1="106.854" y1="328.192" x2="209.254" y2="150.81" gradientUnits="userSpaceOnUse">
          <stop stop-color="#838BC5"></stop>
          <stop offset="1" stop-color="#B99BC9"></stop>
        </linearGradient>
        <linearGradient id="paint7_linear_29_63" x1="241.485" y1="178.458" x2="293.171" y2="88.9344" gradientUnits="userSpaceOnUse">
          <stop stop-color="#838BC5"></stop>
          <stop offset="1" stop-color="#B599C9"></stop>
        </linearGradient>
        <linearGradient id="paint8_linear_29_63" x1="253.773" y1="397.158" x2="387.738" y2="165.094" gradientUnits="userSpaceOnUse">
          <stop stop-color="#838BC5"></stop>
          <stop offset="1" stop-color="#B99BC9"></stop>
        </linearGradient>
      </defs>
    </symbol>

    <symbol id="icon-partly-cloudy-night" viewBox="0 0 503.49334716796875 348.774658203125" fill="none">
      <path d="M503.493 186.317C492.409 204.706 476.699 219.869 457.929 230.297C439.16 240.724 417.986 246.051 396.516 245.748C375.047 245.444 354.032 239.52 335.564 228.566C317.097 217.612 301.823 202.01 291.263 183.314C280.703 164.619 275.226 143.483 275.377 122.012C275.529 100.541 281.304 79.4846 292.127 60.9403C302.95 42.3961 318.444 27.0115 337.064 16.3193C355.684 5.62705 376.78 0.000437974 398.252 0H400.607C389.467 18.4713 383.386 39.5495 382.975 61.116C382.564 82.6825 387.837 103.977 398.264 122.86C408.691 141.742 423.905 157.548 442.377 168.687C460.848 179.826 481.927 185.906 503.493 186.317Z" fill="url(#paint0_linear_30_79)"></path>
      <path d="M245.753 225.894C245.784 247.079 240.305 267.908 229.855 286.336C225.675 293.763 220.714 300.723 215.058 307.098C214.876 307.323 214.679 307.537 214.469 307.738C200.805 323.015 183.536 334.632 164.234 341.53C144.933 348.428 124.213 350.388 103.961 347.232C83.7082 344.077 64.5668 335.905 48.2795 323.461C31.9922 311.018 19.0763 294.697 10.708 275.987C2.3396 257.276 -1.21543 236.769 0.366593 216.333C1.94861 195.898 8.61742 176.182 19.7658 158.982C30.9142 141.783 46.1879 127.645 64.1963 117.856C82.2048 108.067 102.376 102.939 122.873 102.938C128.18 102.941 133.481 103.283 138.745 103.962C168.321 107.853 195.477 122.354 215.16 144.77C234.844 167.185 245.716 195.987 245.753 225.818V225.894Z" fill="url(#paint1_linear_30_79)"></path>
      <path d="M357.573 113.766C333.626 103.004 306.86 100.195 281.2 105.751C255.539 111.307 232.333 124.936 214.981 144.64C195.349 122.289 168.247 107.855 138.745 104.038C149.913 84.3047 166.325 68.0462 186.162 57.0624C205.999 46.0787 228.489 40.7981 251.142 41.8051C273.795 42.8122 295.727 50.0675 314.511 62.7682C333.296 75.4689 348.2 93.1195 357.573 113.766Z" fill="url(#paint2_linear_30_79)"></path>
      <path d="M480.786 287.334C480.786 303.629 474.313 319.257 462.791 330.779C451.269 342.301 435.641 348.774 419.346 348.774H122.873C140.168 348.809 157.274 345.177 173.063 338.117C188.852 331.056 202.964 320.728 214.469 307.814H215.647L215.058 307.174C220.714 300.799 225.675 293.84 229.855 286.413C242.441 264.173 247.773 238.561 245.106 213.146C242.44 187.732 231.909 163.783 214.981 144.64C231.485 125.927 253.294 112.681 277.509 106.664C301.724 100.647 327.196 102.144 350.539 110.956C373.882 119.768 393.99 135.478 408.188 155.995C422.386 176.513 430.001 200.867 430.021 225.818V226.867C444.239 229.376 457.119 236.811 466.402 247.868C475.685 258.925 480.777 272.897 480.786 287.334Z" fill="url(#paint3_linear_30_79)"></path>
      <defs>
        <linearGradient id="paint0_linear_30_79" x1="275.372" y1="122.88" x2="503.493" y2="122.88" gradientUnits="userSpaceOnUse">
          <stop stop-color="#9BABE2"></stop>
          <stop offset="1" stop-color="#D4F2FF"></stop>
        </linearGradient>
        <linearGradient id="paint1_linear_30_79" x1="61.407" y1="332.339" x2="184.313" y2="119.475" gradientUnits="userSpaceOnUse">
          <stop stop-color="#838BC5"></stop>
          <stop offset="1" stop-color="#B99BC9"></stop>
        </linearGradient>
        <linearGradient id="paint2_linear_30_79" x1="222.943" y1="152.653" x2="284.997" y2="45.2096" gradientUnits="userSpaceOnUse">
          <stop stop-color="#838BC5"></stop>
          <stop offset="1" stop-color="#B599C9"></stop>
        </linearGradient>
        <linearGradient id="paint3_linear_30_79" x1="237.714" y1="415.078" x2="398.482" y2="136.627" gradientUnits="userSpaceOnUse">
          <stop stop-color="#838BC5"></stop>
          <stop offset="1" stop-color="#BA9BC9"></stop>
        </linearGradient>
      </defs>
    </symbol>

    <symbol id="icon-moon" viewBox="0 0 387.99102783203125 409.5999755859375" fill="none">
      <path d="M380.183 310.554C361.705 341.197 335.521 366.465 304.238 383.839C272.956 401.214 237.667 410.088 201.887 409.579C166.107 409.07 131.084 399.195 100.309 380.938C69.533 362.681 44.078 336.679 26.4794 305.521C8.88089 274.364 -0.246985 239.14 0.00508256 203.357C0.25715 167.575 9.88036 132.482 27.9161 101.576C45.9519 70.6703 71.7706 45.0292 102.8 27.2074C133.83 9.38552 168.988 0.00491778 204.772 0H208.689C190.127 30.7881 179.997 65.9196 179.317 101.863C178.637 137.807 187.43 173.297 204.813 204.765C222.196 236.234 247.556 262.572 278.345 281.133C309.133 299.693 344.265 309.823 380.209 310.502L380.183 310.554Z" fill="url(#paint0_linear_30_89)"></path>
      <path d="M290.071 320.026C290.085 328.847 287.8 337.521 283.441 345.19C281.703 348.289 279.634 351.19 277.271 353.843C277.202 353.943 277.125 354.037 277.041 354.125C269.063 363.048 258.211 368.894 246.371 370.647C234.531 372.401 222.45 369.95 212.229 363.722C202.008 357.494 194.292 347.881 190.421 336.555C186.551 325.229 186.771 312.904 191.044 301.723C195.317 290.543 203.371 281.212 213.809 275.353C224.246 269.494 236.406 267.477 248.176 269.652C259.946 271.828 270.582 278.058 278.236 287.26C285.889 296.463 290.077 308.056 290.071 320.026Z" fill="url(#paint1_linear_30_89)"></path>
      <path d="M336.714 273.306C326.736 268.801 315.576 267.613 304.873 269.916C294.17 272.22 284.487 277.894 277.245 286.106C269.053 276.806 257.765 270.793 245.476 269.184C250.126 260.946 256.967 254.158 265.24 249.572C273.513 244.986 282.895 242.781 292.345 243.203C301.795 243.624 310.943 246.656 318.775 251.96C326.607 257.265 332.816 264.635 336.714 273.254V273.306Z" fill="url(#paint2_linear_30_89)"></path>
      <path d="M387.991 345.626C387.991 352.415 385.294 358.927 380.493 363.728C375.692 368.528 369.181 371.226 362.391 371.226H238.871C246.093 371.246 253.238 369.732 259.831 366.784C266.425 363.836 272.317 359.521 277.117 354.125H277.604L277.348 353.843C279.711 351.19 281.779 348.289 283.517 345.19C288.745 335.926 290.958 325.264 289.847 314.684C288.737 304.105 284.359 294.134 277.322 286.157C284.198 278.36 293.285 272.841 303.374 270.334C313.463 267.827 324.076 268.45 333.802 272.121C343.528 275.792 351.906 282.336 357.822 290.884C363.738 299.432 366.912 309.579 366.922 319.974V320.41C372.834 321.473 378.185 324.581 382.036 329.191C385.888 333.801 387.996 339.618 387.991 345.626Z" fill="url(#paint3_linear_30_89)"></path>
      <defs>
        <linearGradient id="paint0_linear_30_89" x1="-0.0281445" y1="204.8" x2="380.183" y2="204.8" gradientUnits="userSpaceOnUse">
          <stop stop-color="#9BABE2"></stop>
          <stop offset="1" stop-color="#D4F2FF"></stop>
        </linearGradient>
        <linearGradient id="paint1_linear_30_89" x1="213.245" y1="364.365" x2="264.471" y2="275.661" gradientUnits="userSpaceOnUse">
          <stop stop-color="#838BC5"></stop>
          <stop offset="1" stop-color="#B89BC9"></stop>
        </linearGradient>
        <linearGradient id="paint2_linear_30_89" x1="280.573" y1="289.51" x2="306.404" y2="244.736" gradientUnits="userSpaceOnUse">
          <stop stop-color="#838BC5"></stop>
          <stop offset="1" stop-color="#B498C9"></stop>
        </linearGradient>
        <linearGradient id="paint3_linear_30_89" x1="286.717" y1="398.848" x2="353.713" y2="282.829" gradientUnits="userSpaceOnUse">
          <stop stop-color="#838BC5"></stop>
          <stop offset="1" stop-color="#B89AC9"></stop>
        </linearGradient>
      </defs>
    </symbol>

    <symbol id="icon-snowy" viewBox="0 0 409.78753662109375 409.5999755859375" fill="none">
      <path d="M385.726 216.781L304.088 236.621L272.625 220.058V189.082L303.729 172.774L385.649 192.819C387.265 193.224 388.924 193.43 390.59 193.434C394.623 193.545 398.585 192.362 401.897 190.059C405.209 187.756 407.697 184.453 408.996 180.634C411.736 171.341 405.694 161.792 395.505 159.309L350.552 148.301L392.075 126.541C394.193 125.545 396.076 124.113 397.601 122.338C399.126 120.563 400.258 118.485 400.923 116.241C401.588 113.998 401.77 111.639 401.459 109.319C401.147 107 400.348 104.773 399.115 102.784C396.335 98.6865 392.137 95.7628 387.33 94.5764C382.523 93.39 377.447 94.0247 373.08 96.3584L331.556 118.118L343.614 77.1584C346.328 67.8656 340.286 58.3168 330.123 55.8336C319.96 53.3504 309.489 58.8544 306.75 68.1472L284.888 142.643L253.579 158.925L223.908 143.258V110.413L283.915 55.6544C285.671 54.119 287.077 52.2259 288.041 50.1022C289.006 47.9784 289.504 45.6731 289.504 43.3408C289.504 41.0085 289.006 38.7032 288.041 36.5794C287.077 34.4557 285.671 32.5626 283.915 31.0272C280.181 27.7578 275.387 25.9556 270.424 25.9556C265.461 25.9556 260.666 27.7578 256.932 31.0272L223.908 61.1584V17.408C223.908 7.808 215.358 0 204.811 0C194.264 0 185.739 7.68 185.739 17.408V60.928L152.945 31.0272C149.211 27.7578 144.417 25.9556 139.454 25.9556C134.491 25.9556 129.697 27.7578 125.963 31.0272C124.207 32.5626 122.8 34.4557 121.836 36.5794C120.872 38.7032 120.374 41.0085 120.374 43.3408C120.374 45.6731 120.872 47.9784 121.836 50.1022C122.8 52.2259 124.207 54.119 125.963 55.6544L185.739 110.182V143.462L156.299 158.899L124.99 142.49L103.128 68.0192C100.388 58.7264 89.9437 53.2736 79.7805 55.7056C69.6173 58.1376 63.5501 67.7376 66.2893 77.0304L78.3213 117.99L36.7981 96.3072C32.4272 93.972 27.347 93.3363 22.5355 94.5226C17.7241 95.709 13.5216 98.6334 10.7373 102.733C9.49982 104.726 8.69853 106.959 8.38613 109.284C8.07372 111.609 8.2573 113.974 8.92479 116.223C9.59227 118.472 10.7285 120.555 12.2587 122.333C13.789 124.111 15.6785 125.545 17.8029 126.541L59.2493 148.25L14.2957 159.181C4.05569 161.741 -1.93471 171.238 0.804485 180.531C2.10395 184.35 4.59179 187.653 7.90384 189.957C11.2159 192.26 15.1782 193.442 19.2109 193.331C20.8767 193.328 22.5359 193.122 24.1517 192.717L106.072 172.672L137.124 188.954V220.058L105.636 236.646L23.9981 216.678C13.8861 214.118 3.36449 219.699 0.650886 228.992C-2.06271 238.285 3.95328 247.834 14.1421 250.291L59.0189 261.376L17.7005 283.136C15.5891 284.139 13.7134 285.576 12.1964 287.355C10.6795 289.133 9.5554 291.212 8.89796 293.455C8.24051 295.698 8.06451 298.055 8.38149 300.37C8.69847 302.686 9.50127 304.909 10.7373 306.893C12.536 309.615 14.9919 311.839 17.878 313.361C20.7641 314.882 23.9872 315.651 27.2493 315.597C30.5678 315.623 33.8406 314.822 36.7725 313.267L78.3213 291.405L66.2381 332.595C63.4989 341.888 69.5405 351.411 79.7293 353.92C81.3462 354.316 83.0053 354.514 84.6701 354.509C88.7272 354.622 92.713 353.426 96.0374 351.098C99.3617 348.77 101.848 345.432 103.128 341.581L125.092 266.778L156.299 250.317L185.739 265.805V299.418L125.963 353.971C124.207 355.507 122.8 357.4 121.836 359.523C120.872 361.647 120.374 363.952 120.374 366.285C120.374 368.617 120.872 370.922 121.836 373.046C122.8 375.17 124.207 377.063 125.963 378.598C129.697 381.868 134.491 383.67 139.454 383.67C144.417 383.67 149.211 381.868 152.945 378.598L185.739 348.672V392.192C185.739 401.818 194.289 409.6 204.811 409.6C215.332 409.6 223.908 401.92 223.908 392.192V348.442L256.932 378.598C260.666 381.868 265.461 383.67 270.424 383.67C275.387 383.67 280.181 381.868 283.915 378.598C285.671 377.063 287.077 375.17 288.041 373.046C289.006 370.922 289.504 368.617 289.504 366.285C289.504 363.952 289.006 361.647 288.041 359.523C287.077 357.4 285.671 355.507 283.915 353.971L223.908 299.213V265.933L253.553 250.317L284.785 266.778L306.75 341.581C308.031 345.422 310.51 348.75 313.823 351.077C317.137 353.404 321.109 354.607 325.156 354.509C326.83 354.514 328.497 354.316 330.123 353.92C340.363 351.36 346.328 341.888 343.614 332.595L331.505 291.405L373.054 313.267C375.986 314.822 379.259 315.623 382.577 315.597C385.839 315.651 389.062 314.882 391.949 313.361C394.835 311.839 397.291 309.615 399.089 306.893C400.325 304.909 401.128 302.686 401.445 300.37C401.762 298.055 401.586 295.698 400.929 293.455C400.271 291.212 399.147 289.133 397.63 287.355C396.113 285.576 394.237 284.139 392.126 283.136L350.859 261.376L395.633 250.394C405.873 247.834 411.864 238.387 409.124 229.094C406.385 219.802 395.889 214.349 385.726 216.781ZM234.456 220.16L204.939 235.725L175.422 220.16V189.03L204.939 173.466L234.456 189.056V220.16Z" fill="url(#paint0_linear_30_98)"></path>
      <defs>
        <linearGradient id="paint0_linear_30_98" x1="108.683" y1="371.533" x2="301.195" y2="38.0672" gradientUnits="userSpaceOnUse">
          <stop stop-color="#9BABE2"></stop>
          <stop offset="1" stop-color="#D4F2FF"></stop>
        </linearGradient>
      </defs>
    </symbol>

    <symbol id="icon-sunset" viewBox="0 0 512.0999755859375 469.4000244140625">
      <path d="M255.7 181.2C249.8 181.2 245 186 245 191.9V217.5C245 223.4 249.8 228.2 255.7 228.2C261.6 228.2 266.4 223.4 266.4 217.5V191.9C266.4 186 261.6 181.2 255.7 181.2ZM156.6 247.1C159.5 252.2 166.1 253.9 171.2 251C176.3 248.1 178 241.5 175.1 236.4L162.2 214.1C159.3 209 152.7 207.2 147.6 210.2C142.5 213.1 140.8 219.7 143.7 224.8L156.6 247.1ZM72.4001 303.9L95.1001 317C100.2 320 106.7 318.2 109.7 313.1C112.6 308 110.9 301.5 105.8 298.5L83.1001 285.4C78.0001 282.5 71.5001 284.2 68.5001 289.3C65.6001 294.5 67.3001 301 72.4001 303.9ZM416.3 317L437 305.1C442.1 302.2 443.9 295.6 440.9 290.5C438 285.4 431.5 283.6 426.3 286.6L405.6 298.5C400.5 301.4 398.7 308 401.7 313.1C404.7 318.2 411.2 319.9 416.3 317ZM340.3 251.1C345.4 254.1 351.9 252.3 354.9 247.2L366.6 226.9C369.5 221.8 367.8 215.3 362.7 212.3C357.6 209.4 351.1 211.1 348.1 216.2L336.4 236.5C333.4 241.6 335.2 248.1 340.3 251.1Z"></path>
      <path d="M501.3 352.7H403.3C384.2 287.4 324.8 242.4 255.8 242.4C186.8 242.4 127.4 287.4 108.3 352.7H10.7C4.8 352.7 0 357.5 0 363.4C0 369.3 4.8 374.1 10.7 374.1H501.4C507.3 374.1 512.1 369.3 512.1 363.4C512.1 357.5 507.2 352.7 501.3 352.7ZM130.5 352.7C148.7 299.7 198.5 263.7 255.8 263.7C313.1 263.7 362.8 299.7 381.1 352.7H130.5ZM434.5 400.4H77.5C71.6 400.4 66.8 405.2 66.8 411.1C66.8 417 71.6 421.8 77.5 421.8H434.6C440.5 421.8 445.3 417 445.3 411.1C445.2 405.1 440.4 400.4 434.5 400.4ZM350.5 448H161.4C155.5 448 150.7 452.8 150.7 458.7C150.7 464.6 155.5 469.4 161.4 469.4H350.5C356.4 469.4 361.2 464.6 361.2 458.7C361.2 452.8 356.4 448 350.5 448ZM248.2 107.8C252.3 112.2 259.3 112.3 263.6 108.1L293.9 77.8C298.1 73.6 298.1 66.9 293.9 62.7C289.7 58.5 283 58.5 278.8 62.7L266.7 74.8V10.7C266.7 4.8 261.9 0 256 0C250.1 0 245.3 4.8 245.3 10.7V74.8L233.2 62.7C229 58.5 222.3 58.5 218.1 62.7C213.9 66.9 214 73.6 218.1 77.8L248.2 107.8Z"></path>
    </symbol>

    <symbol id="icon-sunrise" viewBox="0 0 512 512">
      <g clip-path="url(#clip0_36_109)">
        <path d="M255.7 138.5C249.8 138.5 245 143.3 245 149.2V174.8C245 180.7 249.8 185.5 255.7 185.5C261.6 185.5 266.4 180.7 266.4 174.8V149.2C266.4 143.3 261.6 138.5 255.7 138.5ZM156.7 204.4C159.6 209.5 166.2 211.2 171.3 208.3C176.4 205.4 178.1 198.8 175.2 193.7L162.3 171.4C159.4 166.3 152.8 164.6 147.7 167.5C142.6 170.4 140.9 177 143.8 182.1L156.7 204.4ZM72.5 261.2L95.2 274.3C100.3 277.2 106.8 275.5 109.8 270.4C112.7 265.3 111 258.8 105.9 255.8L83.2 242.7C78.1 239.8 71.6 241.5 68.6 246.6C65.6 251.8 67.4 258.3 72.5 261.2ZM423.9 354.7C423.9 360.6 428.7 365.4 434.6 365.4H458.9C464.8 365.4 469.6 360.6 469.6 354.7C469.6 348.8 464.8 344 458.9 344H434.6C428.7 344 423.9 348.8 423.9 354.7ZM50.2 365.4H76.9C82.8 365.4 87.6 360.6 87.6 354.7C87.6 348.8 82.8 344 76.9 344H50.2C44.3 344 39.5 348.8 39.5 354.7C39.5 360.6 44.4 365.4 50.2 365.4ZM416.3 274.3L437 262.4C442.1 259.5 443.9 252.9 440.9 247.8C437.9 242.7 431.4 240.9 426.3 243.9L405.6 255.8C400.5 258.7 398.7 265.3 401.7 270.4C404.7 275.5 411.3 277.2 416.3 274.3ZM340.3 208.4C345.4 211.4 351.9 209.6 354.9 204.5L366.6 184.2C373.6 172 355.2 161.3 348.1 173.5L336.4 193.8C333.4 198.9 335.2 205.4 340.3 208.4Z"></path>
        <path d="M501.3 395.3H403.9C407.7 381.8 409.7 367.8 409.7 353.6C409.7 268.7 340.7 199.7 255.8 199.7C170.9 199.7 101.9 268.7 101.9 353.6C101.9 367.8 103.8 381.8 107.7 395.3H10.7C4.8 395.3 0 400.1 0 406C0 411.9 4.8 416.7 10.7 416.7H501.4C507.3 416.7 512.1 411.9 512.1 406C512 400.1 507.2 395.3 501.3 395.3ZM129.9 395.3C125.4 381.9 123.2 367.9 123.2 353.6C123.2 280.5 182.7 221 255.8 221C328.9 221 388.4 280.5 388.4 353.6C388.4 367.9 386.1 381.9 381.7 395.3H129.9ZM434.6 443H77.5C71.6 443 66.8 447.8 66.8 453.7C66.8 459.6 71.6 464.4 77.5 464.4H434.6C440.5 464.4 445.3 459.6 445.3 453.7C445.3 447.8 440.4 443 434.6 443ZM350.6 490.7H161.5C155.6 490.7 150.8 495.5 150.8 501.4C150.8 507.3 155.6 512.1 161.5 512.1H350.6C356.5 512.1 361.3 507.3 361.3 501.4C361.3 495.5 356.5 490.7 350.6 490.7ZM233.2 48.5L245.3 36.4V100.6C245.3 106.5 250.1 111.3 256 111.3C261.9 111.3 266.7 106.5 266.7 100.6V36.4L278.9 48.5C283.1 52.7 289.8 52.6 294 48.5C298.2 44.3 298.1 37.6 294 33.4L263.9 3.4C261.8 1.1 258.9 0 256.1 0C253.4 0 250.6 1 248.5 3.1L218.2 33.4C214 37.6 214 44.3 218.2 48.5C222.3 52.7 229 52.7 233.2 48.5Z"></path>
      </g>
      <defs>
        <clipPath id="clip0_36_109">
          <rect width="512" height="512"></rect>
        </clipPath>
      </defs>
    </symbol>

    <symbol id="icon-rain" viewBox="0 0 512 472.66790771484375">
      <path d="M34.1 417.6C28.9 414.8 26.9 408.4 29.7 403.2L63.5 339.2C66.3 334 72.7 332 77.9 334.7C83.1 337.5 85.1 343.9 82.4 349.1L48.6 413.1C45.8 418.4 39.3 420.3 34.1 417.6ZM124.9 417.6C119.7 414.8 117.7 408.4 120.5 403.2L154.3 339.2C157.1 334 163.5 332 168.7 334.8C173.9 337.6 175.9 344 173.1 349.2L139.3 413.2C136.6 418.4 130.1 420.3 124.9 417.6ZM5.7 471.4C0.5 468.6 -1.5 462.2 1.3 457L6.7 446.8C9.4 441.6 15.9 439.6 21.1 442.4C26.3 445.2 28.3 451.6 25.5 456.8L20.1 467C17.3 472.2 10.9 474.2 5.7 471.4ZM215.8 417.6C210.6 414.8 208.6 408.4 211.3 403.2L245.1 339.2C247.9 334 254.3 332 259.5 334.8C264.7 337.6 266.7 344 263.9 349.2L230.1 413.2C227.4 418.4 221 420.3 215.8 417.6ZM96.5 471.4C91.3 468.6 89.3 462.2 92 457L97.4 446.8C100.2 441.6 106.6 439.6 111.8 442.3C117 445.1 119 451.5 116.3 456.7L110.9 466.9C108.2 472.2 101.7 474.2 96.5 471.4ZM187.3 471.4C182.1 468.6 180.1 462.2 182.9 457L188.3 446.8C191 441.6 197.5 439.6 202.7 442.4C207.9 445.2 209.9 451.6 207.1 456.8L201.7 467C199 472.2 192.5 474.2 187.3 471.4ZM306.6 417.6C301.4 414.8 299.4 408.4 302.2 403.2L336 339.2C338.8 334 345.2 332 350.4 334.7C355.6 337.5 357.6 343.9 354.9 349.1L321.1 413.1C318.2 418.4 311.8 420.3 306.6 417.6ZM278.1 471.4C272.9 468.6 270.9 462.2 273.7 457L279.1 446.8C281.8 441.6 288.3 439.6 293.5 442.4C298.7 445.2 300.7 451.6 297.9 456.8L292.5 467C289.8 472.2 283.3 474.2 278.1 471.4ZM389.1 417.6C383.9 414.8 381.9 408.4 384.7 403.2L418.5 339.2C421.3 334 427.7 332 432.9 334.7C438.1 337.5 440.1 343.9 437.4 349.1L403.6 413.1C400.7 418.4 394.3 420.3 389.1 417.6ZM360.6 471.4C355.4 468.6 353.4 462.2 356.2 457L361.6 446.8C364.4 441.6 370.8 439.6 376 442.4C381.2 445.2 383.2 451.6 380.4 456.8L375 467C372.3 472.2 365.8 474.2 360.6 471.4ZM434.2 285.9H94.1C42.2 285.9 0 243.7 0 191.8C0 139.5 41.9 99.9 89 97.7C90.6 50 133.7 0 193.3 0C230.1 0 263.9 19.5 282.4 50.5C295 44.3 308.9 41 323.2 41C374 41 415 82 415.5 132.3C421.5 130.8 427.8 130.1 434.2 130.1C477.1 130.1 512 165.1 512 208.1C512 251 477.1 285.9 434.2 285.9ZM21.3 191.8C21.3 231.9 53.9 264.6 94.1 264.6H434.2C465.4 264.6 490.7 239.3 490.7 208.1C490.7 176.8 465.4 151.4 434.2 151.4C425 151.4 416.3 153.5 408.4 157.6C404.8 159.5 400.4 159.1 397.1 156.7C393.8 154.3 392.2 150.2 393 146.2C401.1 102.3 367.2 62.3 323.2 62.3C309.1 62.3 295.6 66.4 284.1 74.1C281.5 75.9 278.3 76.4 275.2 75.5C272.2 74.6 269.7 72.5 268.4 69.6C255.1 40.3 225.7 21.3 193.3 21.3C142.4 21.3 105.9 68.3 110.7 107.2C111.5 113.9 106 119.7 99.2 119.1C59.8 115.6 21.3 147.7 21.3 191.8Z"></path>
      <path d="M142.6 115.1H142.5C136.6 115 131.9 110.2 132 104.3C132.4 69.7 159.3 42.6 193.3 42.6C199.2 42.6 204 47.4 204 53.3C204 59.2 199.2 64 193.3 64C171.1 64 153.6 81.9 153.3 104.6C153.2 110.4 148.4 115.1 142.6 115.1Z"></path>
    </symbol>

    <symbol id="icon-unknown" viewBox="0 0 512 512" fill="none">
      <path d="M176 448C100.8 416 48 342.4 48 256C48 140.8 140.8 48 256 48C371.2 48 464 140.8 464 256C464 371.2 371.2 464 256 464" stroke="#0C4ADA" stroke-width="32" stroke-miterlimit="10" stroke-linecap="round" stroke-linejoin="round"></path>
      <path d="M208 192L304 320ZM304 192L208 320Z" fill="black"></path>
      <path d="M208 192L304 320M304 192L208 320" stroke="#20BFFC" stroke-width="32" stroke-miterlimit="10" stroke-linecap="round" stroke-linejoin="round"></path>
    </symbol>

  </defs>
</svg>
