<svg aria-hidden="true" style="position:absolute;width:0;height:0;overflow:hidden" xmlns="http://www.w3.org/2000/svg">
  <defs>
    <symbol id="icon-partly-cloudy" viewBox="0 0 512 512" fill="none">
    <path d="M158.796 317.196C226.543 317.196 281.462 262.307 281.462 194.598C281.462 126.889 226.543 72 158.796 72C91.0497 72 36.1302 126.889 36.1302 194.598C36.1302 262.307 91.0497 317.196 158.796 317.196Z" fill="url(#paint0_linear_28_38)"></path>
    <path d="M261.35 297.402C261.375 327.245 250.466 356.064 230.684 378.419C230.502 378.644 230.305 378.857 230.096 379.057C216.456 394.299 199.218 405.888 179.951 412.771C160.685 419.653 140.002 421.61 119.786 418.462C99.5696 415.315 80.4621 407.164 64.2031 394.75C47.944 382.337 35.0498 366.057 26.6945 347.391C18.3392 328.725 14.7882 308.266 16.3647 287.878C17.9412 267.491 24.5953 247.821 35.7209 230.659C46.8466 213.498 62.0906 199.391 80.0649 189.622C98.0392 179.853 118.173 174.733 138.633 174.727C143.939 174.731 149.24 175.072 154.503 175.749C184.038 179.6 211.163 194.061 230.814 216.432C250.465 238.803 261.301 267.556 261.299 297.325L261.35 297.402Z" fill="url(#paint1_linear_28_38)"></path>
    <path d="M373.104 185.531C349.186 174.769 322.445 171.953 296.808 177.497C271.17 183.041 247.986 196.652 230.658 216.334C211.056 194.04 184.003 179.64 154.554 175.825C165.694 156.11 182.08 139.863 201.894 128.885C221.708 117.908 244.177 112.629 266.81 113.634C289.442 114.64 311.354 121.889 330.116 134.58C348.878 147.27 363.757 164.906 373.104 185.531Z" fill="url(#paint2_linear_28_38)"></path>
    <path d="M496 358.701C496 374.958 489.538 390.55 478.036 402.046C466.534 413.541 450.933 420 434.667 420H138.684C155.954 420.038 173.035 416.416 188.801 409.372C204.567 402.327 218.659 392.021 230.147 379.134H231.297L230.735 378.495C250.47 356.106 261.358 327.291 261.358 297.453C261.358 267.614 250.47 238.8 230.735 216.41C247.21 197.74 268.981 184.525 293.153 178.521C317.326 172.518 342.754 174.012 366.057 182.804C389.359 191.596 409.432 207.269 423.605 227.739C437.778 248.21 445.38 272.508 445.4 297.402V298.449C459.566 300.965 472.396 308.379 481.645 319.393C490.895 330.407 495.976 344.321 496 358.701Z" fill="url(#paint3_linear_28_38)"></path>
    <defs>
      <linearGradient id="paint0_linear_28_38" x1="52.5368" y1="255.923" x2="264.971" y2="133.197" gradientUnits="userSpaceOnUse">
        <stop stop-color="#FBB03B"></stop>
        <stop offset="1" stop-color="#F15C24"></stop>
      </linearGradient>
      <linearGradient id="paint1_linear_28_38" x1="77.3511" y1="403.602" x2="199.915" y2="191.168" gradientUnits="userSpaceOnUse">
        <stop stop-color="#838BC5"></stop>
        <stop offset="1" stop-color="#B89AC9"></stop>
      </linearGradient>
      <linearGradient id="paint2_linear_28_38" x1="238.606" y1="224.328" x2="300.475" y2="117.102" gradientUnits="userSpaceOnUse">
        <stop stop-color="#838BC5"></stop>
        <stop offset="1" stop-color="#B69AC9"></stop>
      </linearGradient>
      <linearGradient id="paint3_linear_28_38" x1="253.326" y1="486.152" x2="413.68" y2="208.262" gradientUnits="userSpaceOnUse">
        <stop stop-color="#838BC5"></stop>
        <stop offset="1" stop-color="#B99BC9"></stop>
      </linearGradient>
    </defs>
  </symbol>

  <symbol id="icon-thunder" viewBox="0 0 512 512" fill="none">
    <g clip-path="url(#clip0_28_51)">
      <path d="M260.872 286.16C260.901 307.085 255.503 327.66 245.206 345.876C241.046 353.201 236.142 360.078 230.573 366.399L229.997 367.037C211.083 388.208 185.349 402.084 157.268 406.252C129.186 410.421 100.532 404.62 76.2832 389.856C52.0348 375.092 33.7255 352.299 24.5368 325.438C15.3481 298.577 15.8608 269.345 25.9859 242.823C36.111 216.3 55.2085 194.164 79.9597 180.259C104.711 166.355 133.551 161.562 161.47 166.713C189.388 171.864 214.619 186.633 232.778 208.455C250.938 230.277 260.878 257.771 260.872 286.16Z" fill="url(#paint0_linear_28_51)"></path>
      <path d="M371.5 175.35C347.836 164.673 321.374 161.859 295.995 167.323C270.616 172.787 247.655 186.24 230.482 205.709C211.058 183.669 184.272 169.455 155.131 165.726C166.16 146.196 182.382 130.101 201.999 119.226C221.617 108.352 243.862 103.123 266.27 104.12C288.677 105.117 310.371 112.3 328.945 124.873C347.519 137.446 362.249 154.917 371.5 175.35Z" fill="url(#paint1_linear_28_51)"></path>
      <path d="M493.178 346.878C493.178 354.852 491.608 362.748 488.557 370.114C485.505 377.481 481.033 384.174 475.394 389.813C469.756 395.451 463.063 399.923 455.696 402.975C448.33 406.026 440.434 407.596 432.46 407.596H139.436C156.54 407.622 173.456 404.02 189.066 397.029C204.676 390.037 218.627 379.815 229.997 367.037H231.12C231.12 366.824 230.756 366.612 230.573 366.399C236.142 360.078 241.046 353.201 245.206 345.877C257.602 323.901 262.844 298.61 260.206 273.517C257.567 248.425 247.178 224.778 230.482 205.861C246.791 187.369 268.343 174.279 292.271 168.332C316.2 162.386 341.372 163.864 364.44 172.57C387.508 181.277 407.379 196.799 421.412 217.073C435.444 237.348 442.972 261.413 442.995 286.069V287.102C457.052 289.578 469.786 296.927 478.964 307.859C488.141 318.79 493.174 332.605 493.178 346.878Z" fill="url(#paint2_linear_28_51)"></path>
      <path d="M186.674 528L188.162 439.503L222.042 437.469L231.12 362.119L229.632 450.615L195.752 452.649L186.674 528Z" fill="url(#paint3_linear_28_51)"></path>
      <path d="M278.328 521.898L279.816 433.401L313.696 431.367L322.774 356.016L321.286 444.513L287.405 446.547L278.328 521.898Z" fill="url(#paint4_linear_28_51)"></path>
      <path d="M369.982 528L371.469 439.503L405.35 437.469L414.427 362.119L412.94 450.615L379.059 452.649L369.982 528Z" fill="url(#paint5_linear_28_51)"></path>
      <path d="M94.9902 528L96.4778 439.503L130.389 437.469L139.436 362.119L137.979 450.615L104.068 452.649L94.9902 528Z" fill="url(#paint6_linear_28_51)"></path>
    </g>
    <defs>
      <linearGradient id="paint0_linear_28_51" x1="78.7179" y1="391.354" x2="200.154" y2="180.967" gradientUnits="userSpaceOnUse">
        <stop stop-color="#838BC5"></stop>
        <stop offset="1" stop-color="#B89AC9"></stop>
      </linearGradient>
      <linearGradient id="paint1_linear_28_51" x1="238.376" y1="213.785" x2="299.67" y2="107.589" gradientUnits="userSpaceOnUse">
        <stop stop-color="#838BC5"></stop>
        <stop offset="1" stop-color="#B89AC9"></stop>
      </linearGradient>
      <linearGradient id="paint2_linear_28_51" x1="252.948" y1="473.111" x2="411.816" y2="197.937" gradientUnits="userSpaceOnUse">
        <stop stop-color="#838BC5"></stop>
        <stop offset="1" stop-color="#B89AC9"></stop>
      </linearGradient>
      <linearGradient id="paint3_linear_28_51" x1="167.399" y1="516.914" x2="250.34" y2="373.256" gradientUnits="userSpaceOnUse">
        <stop stop-color="#FFFF00"></stop>
        <stop offset="1" stop-color="#E9A300"></stop>
      </linearGradient>
      <linearGradient id="paint4_linear_28_51" x1="259.087" y1="510.813" x2="342.028" y2="367.155" gradientUnits="userSpaceOnUse">
        <stop stop-color="#FFFF00"></stop>
        <stop offset="1" stop-color="#E9A300"></stop>
      </linearGradient>
      <linearGradient id="paint5_linear_28_51" x1="350.731" y1="516.9" x2="433.672" y2="373.242" gradientUnits="userSpaceOnUse">
        <stop stop-color="#FFFF00"></stop>
        <stop offset="1" stop-color="#E9A300"></stop>
      </linearGradient>
      <linearGradient id="paint6_linear_28_51" x1="75.7514" y1="516.893" x2="158.693" y2="373.235" gradientUnits="userSpaceOnUse">
        <stop stop-color="#FFFF00"></stop>
        <stop offset="1" stop-color="#E9A300"></stop>
      </linearGradient>
      <clipPath id="clip0_28_51">
        <rect width="512" height="512" fill="white"></rect>
      </clipPath>
    </defs>
  </symbol>

  <symbol id="icon-rainy" viewBox="0 0 512 512" fill="none">
    <path d="M185.005 436.001C193.841 436.001 201.004 428.838 201.004 420.001C201.004 411.165 193.841 404.001 185.005 404.001C176.168 404.001 169.005 411.165 169.005 420.001C169.005 428.838 176.168 436.001 185.005 436.001Z" fill="url(#paint0_linear_29_63)"></path>
    <path d="M281.003 436.001C289.839 436.001 297.003 428.838 297.003 420.001C297.003 411.165 289.839 404.001 281.003 404.001C272.166 404.001 265.003 411.165 265.003 420.001C265.003 428.838 272.166 436.001 281.003 436.001Z" fill="url(#paint1_linear_29_63)"></path>
    <path d="M377.001 436.001C385.838 436.001 393.001 428.838 393.001 420.001C393.001 411.165 385.838 404.001 377.001 404.001C368.165 404.001 361.002 411.165 361.002 420.001C361.002 428.838 368.165 436.001 377.001 436.001Z" fill="url(#paint2_linear_29_63)"></path>
    <path d="M233.004 500C241.84 500 249.004 492.837 249.004 484C249.004 475.164 241.84 468 233.004 468C224.167 468 217.004 475.164 217.004 484C217.004 492.837 224.167 500 233.004 500Z" fill="url(#paint3_linear_29_63)"></path>
    <path d="M329.002 500C337.839 500 345.002 492.837 345.002 484C345.002 475.164 337.839 468 329.002 468C320.166 468 313.003 475.164 313.003 484C313.003 492.837 320.166 500 329.002 500Z" fill="url(#paint4_linear_29_63)"></path>
    <path d="M137.006 500C145.842 500 153.005 492.837 153.005 484C153.005 475.164 145.842 468 137.006 468C128.169 468 121.006 475.164 121.006 484C121.006 492.837 128.169 500 137.006 500Z" fill="url(#paint5_linear_29_63)"></path>
    <path d="M261.995 292.004C262.026 314.059 256.337 335.746 245.484 354.947C241.1 362.678 235.931 369.938 230.06 376.61L229.452 377.282C209.516 399.598 182.392 414.223 152.793 418.617C123.194 423.011 92.9912 416.896 67.4326 401.334C41.8739 385.773 22.5752 361.748 12.89 333.435C3.20478 305.123 3.74524 274.312 14.4175 246.356C25.0897 218.401 45.2191 195.068 71.3078 180.412C97.3964 165.756 127.795 160.704 157.222 166.134C186.649 171.563 213.243 187.131 232.384 210.131C251.525 233.132 262.002 262.112 261.995 292.036V292.004Z" fill="url(#paint6_linear_29_63)"></path>
    <path d="M378.602 175.206C353.66 163.951 325.768 160.986 299.017 166.745C272.266 172.504 248.065 186.684 229.964 207.205C209.49 183.973 181.257 168.992 150.542 165.062C162.166 144.476 179.265 127.511 199.942 116.049C220.62 104.587 244.067 99.0759 267.686 100.126C291.304 101.177 314.17 108.748 333.748 122.001C353.326 135.253 368.851 153.669 378.602 175.206Z" fill="url(#paint7_linear_29_63)"></path>
    <path d="M506.855 356.003C506.855 372.976 500.112 389.255 488.11 401.257C476.108 413.259 459.83 420.002 442.856 420.002H133.998C152.026 420.028 169.856 416.232 186.309 408.863C202.763 401.493 217.467 390.719 229.452 377.25H230.636C230.636 377.026 230.252 376.802 230.06 376.578C235.929 369.916 241.098 362.667 245.484 354.947C258.549 331.783 264.074 305.126 261.293 278.677C258.512 252.229 247.562 227.304 229.964 207.365C247.154 187.874 269.87 174.077 295.092 167.809C320.313 161.541 346.845 163.099 371.16 172.276C395.475 181.453 416.42 197.814 431.21 219.184C446.001 240.553 453.936 265.919 453.96 291.908V292.996C468.776 295.606 482.199 303.352 491.872 314.875C501.545 326.397 506.85 340.958 506.855 356.003Z" fill="url(#paint8_linear_29_63)"></path>
    <defs>
      <linearGradient id="paint0_linear_29_63" x1="177.005" y1="433.857" x2="193.004" y2="406.113" gradientUnits="userSpaceOnUse">
        <stop stop-color="#29ABE2"></stop>
        <stop offset="1" stop-color="#00FFFF"></stop>
      </linearGradient>
      <linearGradient id="paint1_linear_29_63" x1="273.003" y1="433.857" x2="289.003" y2="406.113" gradientUnits="userSpaceOnUse">
        <stop stop-color="#29ABE2"></stop>
        <stop offset="1" stop-color="#00FFFF"></stop>
      </linearGradient>
      <linearGradient id="paint2_linear_29_63" x1="369.002" y1="433.857" x2="385.001" y2="406.113" gradientUnits="userSpaceOnUse">
        <stop stop-color="#29ABE2"></stop>
        <stop offset="1" stop-color="#00FFFF"></stop>
      </linearGradient>
      <linearGradient id="paint3_linear_29_63" x1="225.004" y1="497.856" x2="241.004" y2="470.112" gradientUnits="userSpaceOnUse">
        <stop stop-color="#29ABE2"></stop>
        <stop offset="1" stop-color="#00FFFF"></stop>
      </linearGradient>
      <linearGradient id="paint4_linear_29_63" x1="321.003" y1="497.856" x2="337.002" y2="470.112" gradientUnits="userSpaceOnUse">
        <stop stop-color="#29ABE2"></stop>
        <stop offset="1" stop-color="#00FFFF"></stop>
      </linearGradient>
      <linearGradient id="paint5_linear_29_63" x1="129.006" y1="497.856" x2="145.005" y2="470.112" gradientUnits="userSpaceOnUse">
        <stop stop-color="#29ABE2"></stop>
        <stop offset="1" stop-color="#00FFFF"></stop>
      </linearGradient>
      <linearGradient id="paint6_linear_29_63" x1="69.9989" y1="402.85" x2="197.997" y2="181.126" gradientUnits="userSpaceOnUse">
        <stop stop-color="#838BC5"></stop>
        <stop offset="1" stop-color="#B99BC9"></stop>
      </linearGradient>
      <linearGradient id="paint7_linear_29_63" x1="238.284" y1="215.685" x2="302.891" y2="103.783" gradientUnits="userSpaceOnUse">
        <stop stop-color="#838BC5"></stop>
        <stop offset="1" stop-color="#B599C9"></stop>
      </linearGradient>
      <linearGradient id="paint8_linear_29_63" x1="253.643" y1="489.056" x2="421.097" y2="198.981" gradientUnits="userSpaceOnUse">
        <stop stop-color="#838BC5"></stop>
        <stop offset="1" stop-color="#B99BC9"></stop>
      </linearGradient>
    </defs>
  </symbol>

  <symbol id="icon-partly-cloudy-night" viewBox="0 0 512 512" fill="none">
    <path d="M512 252.858C500.915 271.733 485.206 287.298 466.436 298.001C447.666 308.704 426.492 314.172 405.023 313.861C383.553 313.549 362.538 307.468 344.071 296.224C325.604 284.98 310.329 268.966 299.769 249.776C289.209 230.586 283.732 208.891 283.884 186.852C284.036 164.813 289.811 143.2 300.634 124.165C311.457 105.13 326.95 89.3388 345.57 78.3637C364.19 67.3887 385.287 61.6132 406.758 61.6128H409.114C397.974 80.5727 391.893 102.208 391.482 124.345C391.07 146.482 396.343 168.34 406.77 187.722C417.198 207.104 432.412 223.328 450.883 234.761C469.355 246.195 490.433 252.436 512 252.858Z" fill="url(#paint0_linear_30_78)"></path>
    <path d="M254.259 293.482C254.29 315.227 248.812 336.607 238.362 355.523C234.181 363.146 229.221 370.29 223.565 376.833C223.383 377.065 223.186 377.285 222.976 377.49C209.311 393.172 192.042 405.096 172.741 412.176C153.44 419.257 132.72 421.269 112.467 418.03C92.2147 414.79 73.0734 406.403 56.7861 393.63C40.4988 380.857 27.5829 364.105 19.2146 344.899C10.8462 325.694 7.29116 304.645 8.87319 283.668C10.4552 262.692 17.124 242.455 28.2724 224.8C39.4208 207.146 54.6945 192.634 72.7029 182.586C90.7114 172.539 110.882 167.274 131.379 167.273C136.686 167.277 141.988 167.628 147.251 168.324C176.827 172.318 203.983 187.204 223.667 210.212C243.351 233.22 254.222 262.783 254.259 293.403V293.482Z" fill="url(#paint1_linear_30_78)"></path>
    <path d="M366.08 178.388C342.132 167.341 315.367 164.458 289.706 170.161C264.046 175.864 240.839 189.853 223.488 210.079C203.856 187.137 176.754 172.321 147.251 168.403C158.42 148.147 174.831 131.459 194.669 120.185C214.506 108.91 236.996 103.49 259.648 104.524C282.301 105.557 304.234 113.005 323.018 126.041C341.802 139.078 356.706 157.195 366.08 178.388Z" fill="url(#paint2_linear_30_78)"></path>
    <path d="M489.293 356.547C489.293 373.273 482.82 389.314 471.297 401.141C459.775 412.968 444.148 419.613 427.853 419.613H131.379C148.675 419.649 165.781 415.92 181.57 408.673C197.359 401.426 211.471 390.825 222.976 377.569H224.154L223.565 376.912C229.221 370.369 234.181 363.225 238.362 355.602C250.948 332.774 256.279 306.484 253.613 280.397C250.947 254.31 240.415 229.728 223.488 210.079C239.992 190.87 261.801 177.274 286.015 171.098C310.23 164.922 335.703 166.459 359.046 175.504C382.389 184.549 402.497 200.674 416.694 221.734C430.892 242.795 438.508 267.793 438.528 293.404V294.481C452.745 297.056 465.625 304.687 474.908 316.037C484.191 327.386 489.284 341.729 489.293 356.547Z" fill="url(#paint3_linear_30_78)"></path>
    <defs>
      <linearGradient id="paint0_linear_30_78" x1="283.878" y1="187.743" x2="512" y2="187.743" gradientUnits="userSpaceOnUse">
        <stop stop-color="#9BABE2"></stop>
        <stop offset="1" stop-color="#D4F2FF"></stop>
      </linearGradient>
      <linearGradient id="paint1_linear_30_78" x1="69.9136" y1="402.743" x2="197.695" y2="187.138" gradientUnits="userSpaceOnUse">
        <stop stop-color="#838BC5"></stop>
        <stop offset="1" stop-color="#B99BC9"></stop>
      </linearGradient>
      <linearGradient id="paint2_linear_30_78" x1="231.45" y1="218.303" x2="295.965" y2="109.477" gradientUnits="userSpaceOnUse">
        <stop stop-color="#838BC5"></stop>
        <stop offset="1" stop-color="#B599C9"></stop>
      </linearGradient>
      <linearGradient id="paint3_linear_30_78" x1="246.221" y1="487.67" x2="413.366" y2="205.634" gradientUnits="userSpaceOnUse">
        <stop stop-color="#838BC5"></stop>
        <stop offset="1" stop-color="#BA9BC9"></stop>
      </linearGradient>
    </defs>
  </symbol>

  <symbol id="icon-moon" viewBox="0 0 512 512" fill="none">
    <path d="M441.626 361.099C423.175 391.698 397.029 416.928 365.793 434.277C334.556 451.626 299.319 460.488 263.591 459.979C227.863 459.471 192.892 449.611 162.162 431.38C131.431 413.15 106.013 387.185 88.4407 356.074C70.8679 324.963 61.7534 289.79 62.0051 254.059C62.2568 218.329 71.8659 183.288 89.8752 152.428C107.885 121.567 133.665 95.9633 164.65 78.1675C195.634 60.3718 230.741 51.0049 266.472 51H270.383C251.849 81.743 241.734 116.823 241.055 152.714C240.375 188.606 249.156 224.043 266.513 255.465C283.871 286.888 309.194 313.187 339.937 331.721C370.68 350.254 405.76 360.369 441.652 361.048L441.626 361.099Z" fill="url(#paint0_linear_30_88)"></path>
    <path d="M351.646 370.557C351.66 379.366 349.378 388.026 345.025 395.685C343.29 398.779 341.224 401.676 338.865 404.325C338.796 404.425 338.719 404.519 338.635 404.606C330.669 413.516 319.833 419.354 308.01 421.104C296.187 422.855 284.124 420.408 273.918 414.189C263.712 407.97 256.007 398.372 252.142 387.062C248.278 375.752 248.498 363.446 252.764 352.282C257.03 341.117 265.073 331.8 275.495 325.95C285.917 320.099 298.06 318.085 309.813 320.257C321.565 322.43 332.186 328.651 339.828 337.84C347.471 347.029 351.652 358.605 351.646 370.557Z" fill="url(#paint1_linear_30_88)"></path>
    <path d="M398.221 323.905C388.257 319.407 377.114 318.221 366.426 320.521C355.739 322.821 346.07 328.487 338.839 336.686C330.659 327.4 319.387 321.397 307.116 319.79C311.759 311.564 318.59 304.786 326.851 300.206C335.112 295.627 344.481 293.425 353.917 293.846C363.353 294.267 372.488 297.294 380.308 302.591C388.129 307.888 394.329 315.248 398.221 323.854V323.905Z" fill="url(#paint2_linear_30_88)"></path>
    <path d="M449.423 396.119C449.423 402.899 446.729 409.401 441.936 414.195C437.142 418.989 430.64 421.682 423.86 421.682H300.521C307.733 421.702 314.867 420.191 321.451 417.247C328.035 414.303 333.918 409.994 338.711 404.606H339.197L338.941 404.325C341.301 401.676 343.367 398.779 345.102 395.685C350.322 386.434 352.531 375.787 351.423 365.223C350.314 354.659 345.943 344.703 338.916 336.738C345.782 328.952 354.855 323.441 364.929 320.938C375.003 318.434 385.601 319.057 395.313 322.722C405.024 326.388 413.39 332.923 419.298 341.458C425.206 349.994 428.375 360.125 428.385 370.506V370.94C434.288 372.002 439.63 375.106 443.476 379.709C447.322 384.312 449.427 390.121 449.423 396.119Z" fill="url(#paint3_linear_30_88)"></path>
    <defs>
      <linearGradient id="paint0_linear_30_88" x1="61.9719" y1="255.5" x2="441.626" y2="255.5" gradientUnits="userSpaceOnUse">
        <stop stop-color="#9BABE2"></stop>
        <stop offset="1" stop-color="#D4F2FF"></stop>
      </linearGradient>
      <linearGradient id="paint1_linear_30_88" x1="274.933" y1="414.831" x2="326.083" y2="326.257" gradientUnits="userSpaceOnUse">
        <stop stop-color="#838BC5"></stop>
        <stop offset="1" stop-color="#B89BC9"></stop>
      </linearGradient>
      <linearGradient id="paint2_linear_30_88" x1="342.162" y1="340.086" x2="367.955" y2="295.377" gradientUnits="userSpaceOnUse">
        <stop stop-color="#838BC5"></stop>
        <stop offset="1" stop-color="#B498C9"></stop>
      </linearGradient>
      <linearGradient id="paint3_linear_30_88" x1="348.297" y1="449.264" x2="415.194" y2="333.415" gradientUnits="userSpaceOnUse">
        <stop stop-color="#838BC5"></stop>
        <stop offset="1" stop-color="#B89AC9"></stop>
      </linearGradient>
    </defs>
  </symbol>

  <symbol id="icon-snowy" viewBox="0 0 512 512" fill="none">
    <path d="M436.161 267.463L354.642 287.274L323.226 270.735V239.805L354.284 223.521L436.084 243.537C437.698 243.941 439.355 244.147 441.018 244.15C445.045 244.261 449.001 243.08 452.308 240.781C455.616 238.481 458.1 235.183 459.397 231.369C462.133 222.09 456.1 212.555 445.926 210.075L401.038 199.084L442.501 177.355C444.615 176.361 446.496 174.931 448.019 173.159C449.541 171.386 450.672 169.311 451.336 167.071C451.999 164.831 452.182 162.475 451.871 160.159C451.56 157.843 450.762 155.619 449.53 153.633C446.755 149.542 442.563 146.623 437.763 145.438C432.963 144.253 427.894 144.887 423.533 147.217L382.071 168.945L394.111 128.045C396.82 118.766 390.788 109.231 380.639 106.752C370.491 104.272 360.036 109.768 357.301 119.047L335.47 193.434L304.207 209.692L274.581 194.048V161.251L334.499 106.573C336.252 105.04 337.657 103.149 338.62 101.029C339.582 98.9082 340.08 96.6062 340.08 94.2773C340.08 91.9484 339.582 89.6465 338.62 87.5258C337.657 85.4052 336.252 83.5149 334.499 81.9817C330.771 78.7171 325.983 76.9176 321.028 76.9176C316.072 76.9176 311.285 78.7171 307.556 81.9817L274.581 112.069V68.3825C274.581 58.7966 266.043 51 255.511 51C244.979 51 236.467 58.6688 236.467 68.3825V111.839L203.721 81.9817C199.993 78.7171 195.206 76.9176 190.25 76.9176C185.294 76.9176 180.507 78.7171 176.778 81.9817C175.025 83.5149 173.62 85.4052 172.658 87.5258C171.695 89.6465 171.197 91.9484 171.197 94.2773C171.197 96.6062 171.695 98.9082 172.658 101.029C173.62 103.149 175.025 105.04 176.778 106.573L236.467 161.021V194.252L207.07 209.666L175.807 193.281L153.977 118.92C151.241 109.64 140.812 104.196 130.664 106.624C120.515 109.052 114.457 118.638 117.192 127.918L129.207 168.818L87.7442 147.166C83.3797 144.834 78.3069 144.2 73.5025 145.384C68.6981 146.569 64.5018 149.489 61.7216 153.582C60.4859 155.573 59.6858 157.802 59.3738 160.124C59.0619 162.446 59.2452 164.807 59.9117 167.053C60.5782 169.299 61.7128 171.378 63.2408 173.154C64.7688 174.929 66.6555 176.361 68.7768 177.355L110.163 199.032L65.2747 209.948C55.0497 212.504 49.0681 221.988 51.8033 231.267C53.1009 235.08 55.5851 238.378 58.8923 240.678C62.1995 242.978 66.156 244.159 70.1827 244.048C71.8461 244.045 73.5029 243.839 75.1163 243.435L156.916 223.419L187.924 239.677V270.735L156.482 287.3L74.9629 267.361C64.8657 264.805 54.3596 270.377 51.6499 279.657C48.9403 288.936 54.9475 298.471 65.1214 300.925L109.932 311.993L68.6746 333.721C66.5662 334.723 64.6933 336.158 63.1786 337.934C61.6638 339.709 60.5414 341.785 59.8849 344.025C59.2284 346.265 59.0527 348.618 59.3692 350.93C59.6857 353.243 60.4874 355.462 61.7216 357.443C63.5176 360.161 65.9699 362.382 68.8518 363.902C71.7337 365.421 74.9521 366.189 78.2094 366.135C81.5231 366.16 84.7911 365.361 87.7186 363.808L129.207 341.978L117.141 383.108C114.406 392.387 120.439 401.896 130.613 404.402C132.227 404.797 133.884 404.995 135.546 404.99C139.597 405.103 143.577 403.909 146.897 401.584C150.216 399.259 152.699 395.926 153.977 392.08L175.909 317.387L207.07 300.95L236.467 316.415V349.979L176.778 404.453C175.025 405.986 173.62 407.876 172.658 409.997C171.695 412.117 171.197 414.419 171.197 416.748C171.197 419.077 171.695 421.379 172.658 423.5C173.62 425.62 175.025 427.511 176.778 429.044C180.507 432.308 185.294 434.108 190.25 434.108C195.206 434.108 199.993 432.308 203.721 429.044L236.467 399.161V442.618C236.467 452.229 245.005 460 255.511 460C266.017 460 274.581 452.331 274.581 442.618V398.931L307.556 429.044C311.285 432.308 316.072 434.108 321.028 434.108C325.983 434.108 330.771 432.308 334.499 429.044C336.252 427.511 337.657 425.62 338.62 423.5C339.582 421.379 340.08 419.077 340.08 416.748C340.08 414.419 339.582 412.117 338.62 409.997C337.657 407.876 336.252 405.986 334.499 404.453L274.581 349.775V316.543L304.182 300.95L335.368 317.387L357.301 392.08C358.58 395.916 361.055 399.239 364.364 401.563C367.672 403.887 371.639 405.088 375.68 404.99C377.351 404.994 379.016 404.797 380.639 404.402C390.864 401.845 396.82 392.387 394.111 383.108L382.02 341.978L423.508 363.808C426.435 365.361 429.703 366.16 433.017 366.135C436.274 366.189 439.493 365.421 442.374 363.902C445.256 362.382 447.709 360.161 449.505 357.443C450.739 355.462 451.541 353.243 451.857 350.93C452.174 348.618 451.998 346.265 451.341 344.025C450.685 341.785 449.562 339.709 448.048 337.934C446.533 336.158 444.66 334.723 442.552 333.721L401.345 311.993L446.054 301.027C456.279 298.471 462.26 289.038 459.525 279.759C456.79 270.48 446.309 265.035 436.161 267.463ZM285.112 270.838L255.639 286.38L226.165 270.838V239.754L255.639 224.212L285.112 239.779V270.838Z" fill="url(#paint0_linear_30_97)"></path>
    <defs>
      <linearGradient id="paint0_linear_30_97" x1="159.524" y1="421.989" x2="351.754" y2="89.0114" gradientUnits="userSpaceOnUse">
        <stop stop-color="#9BABE2"></stop>
        <stop offset="1" stop-color="#D4F2FF"></stop>
      </linearGradient>
    </defs>
  </symbol>

  <symbol id="icon-sun" viewBox="0 0 512 512" fill="none">
    <path d="M259.226 462.31C372.333 462.31 464.026 370.618 464.026 257.51C464.026 144.403 372.333 52.7104 259.226 52.7104C146.118 52.7104 54.4255 144.403 54.4255 257.51C54.4255 370.618 146.118 462.31 259.226 462.31Z" fill="url(#paint0_linear_50_150)"></path>
    <defs>
      <linearGradient id="paint0_linear_50_150" x1="81.8431" y1="359.936" x2="436.634" y2="155.085" gradientUnits="userSpaceOnUse">
        <stop stop-color="#FBB03B"></stop>
        <stop offset="1" stop-color="#F15B24"></stop>
      </linearGradient>
    </defs>
  </symbol>

    <symbol id="icon-sunset" viewBox="0 0 512.0999755859375 469.4000244140625">
      <path d="M255.7 181.2C249.8 181.2 245 186 245 191.9V217.5C245 223.4 249.8 228.2 255.7 228.2C261.6 228.2 266.4 223.4 266.4 217.5V191.9C266.4 186 261.6 181.2 255.7 181.2ZM156.6 247.1C159.5 252.2 166.1 253.9 171.2 251C176.3 248.1 178 241.5 175.1 236.4L162.2 214.1C159.3 209 152.7 207.2 147.6 210.2C142.5 213.1 140.8 219.7 143.7 224.8L156.6 247.1ZM72.4001 303.9L95.1001 317C100.2 320 106.7 318.2 109.7 313.1C112.6 308 110.9 301.5 105.8 298.5L83.1001 285.4C78.0001 282.5 71.5001 284.2 68.5001 289.3C65.6001 294.5 67.3001 301 72.4001 303.9ZM416.3 317L437 305.1C442.1 302.2 443.9 295.6 440.9 290.5C438 285.4 431.5 283.6 426.3 286.6L405.6 298.5C400.5 301.4 398.7 308 401.7 313.1C404.7 318.2 411.2 319.9 416.3 317ZM340.3 251.1C345.4 254.1 351.9 252.3 354.9 247.2L366.6 226.9C369.5 221.8 367.8 215.3 362.7 212.3C357.6 209.4 351.1 211.1 348.1 216.2L336.4 236.5C333.4 241.6 335.2 248.1 340.3 251.1Z"></path>
      <path d="M501.3 352.7H403.3C384.2 287.4 324.8 242.4 255.8 242.4C186.8 242.4 127.4 287.4 108.3 352.7H10.7C4.8 352.7 0 357.5 0 363.4C0 369.3 4.8 374.1 10.7 374.1H501.4C507.3 374.1 512.1 369.3 512.1 363.4C512.1 357.5 507.2 352.7 501.3 352.7ZM130.5 352.7C148.7 299.7 198.5 263.7 255.8 263.7C313.1 263.7 362.8 299.7 381.1 352.7H130.5ZM434.5 400.4H77.5C71.6 400.4 66.8 405.2 66.8 411.1C66.8 417 71.6 421.8 77.5 421.8H434.6C440.5 421.8 445.3 417 445.3 411.1C445.2 405.1 440.4 400.4 434.5 400.4ZM350.5 448H161.4C155.5 448 150.7 452.8 150.7 458.7C150.7 464.6 155.5 469.4 161.4 469.4H350.5C356.4 469.4 361.2 464.6 361.2 458.7C361.2 452.8 356.4 448 350.5 448ZM248.2 107.8C252.3 112.2 259.3 112.3 263.6 108.1L293.9 77.8C298.1 73.6 298.1 66.9 293.9 62.7C289.7 58.5 283 58.5 278.8 62.7L266.7 74.8V10.7C266.7 4.8 261.9 0 256 0C250.1 0 245.3 4.8 245.3 10.7V74.8L233.2 62.7C229 58.5 222.3 58.5 218.1 62.7C213.9 66.9 214 73.6 218.1 77.8L248.2 107.8Z"></path>
    </symbol>

    <symbol id="icon-sunrise" viewBox="0 0 512 512">
      <g clip-path="url(#clip0_36_109)">
        <path d="M255.7 138.5C249.8 138.5 245 143.3 245 149.2V174.8C245 180.7 249.8 185.5 255.7 185.5C261.6 185.5 266.4 180.7 266.4 174.8V149.2C266.4 143.3 261.6 138.5 255.7 138.5ZM156.7 204.4C159.6 209.5 166.2 211.2 171.3 208.3C176.4 205.4 178.1 198.8 175.2 193.7L162.3 171.4C159.4 166.3 152.8 164.6 147.7 167.5C142.6 170.4 140.9 177 143.8 182.1L156.7 204.4ZM72.5 261.2L95.2 274.3C100.3 277.2 106.8 275.5 109.8 270.4C112.7 265.3 111 258.8 105.9 255.8L83.2 242.7C78.1 239.8 71.6 241.5 68.6 246.6C65.6 251.8 67.4 258.3 72.5 261.2ZM423.9 354.7C423.9 360.6 428.7 365.4 434.6 365.4H458.9C464.8 365.4 469.6 360.6 469.6 354.7C469.6 348.8 464.8 344 458.9 344H434.6C428.7 344 423.9 348.8 423.9 354.7ZM50.2 365.4H76.9C82.8 365.4 87.6 360.6 87.6 354.7C87.6 348.8 82.8 344 76.9 344H50.2C44.3 344 39.5 348.8 39.5 354.7C39.5 360.6 44.4 365.4 50.2 365.4ZM416.3 274.3L437 262.4C442.1 259.5 443.9 252.9 440.9 247.8C437.9 242.7 431.4 240.9 426.3 243.9L405.6 255.8C400.5 258.7 398.7 265.3 401.7 270.4C404.7 275.5 411.3 277.2 416.3 274.3ZM340.3 208.4C345.4 211.4 351.9 209.6 354.9 204.5L366.6 184.2C373.6 172 355.2 161.3 348.1 173.5L336.4 193.8C333.4 198.9 335.2 205.4 340.3 208.4Z"></path>
        <path d="M501.3 395.3H403.9C407.7 381.8 409.7 367.8 409.7 353.6C409.7 268.7 340.7 199.7 255.8 199.7C170.9 199.7 101.9 268.7 101.9 353.6C101.9 367.8 103.8 381.8 107.7 395.3H10.7C4.8 395.3 0 400.1 0 406C0 411.9 4.8 416.7 10.7 416.7H501.4C507.3 416.7 512.1 411.9 512.1 406C512 400.1 507.2 395.3 501.3 395.3ZM129.9 395.3C125.4 381.9 123.2 367.9 123.2 353.6C123.2 280.5 182.7 221 255.8 221C328.9 221 388.4 280.5 388.4 353.6C388.4 367.9 386.1 381.9 381.7 395.3H129.9ZM434.6 443H77.5C71.6 443 66.8 447.8 66.8 453.7C66.8 459.6 71.6 464.4 77.5 464.4H434.6C440.5 464.4 445.3 459.6 445.3 453.7C445.3 447.8 440.4 443 434.6 443ZM350.6 490.7H161.5C155.6 490.7 150.8 495.5 150.8 501.4C150.8 507.3 155.6 512.1 161.5 512.1H350.6C356.5 512.1 361.3 507.3 361.3 501.4C361.3 495.5 356.5 490.7 350.6 490.7ZM233.2 48.5L245.3 36.4V100.6C245.3 106.5 250.1 111.3 256 111.3C261.9 111.3 266.7 106.5 266.7 100.6V36.4L278.9 48.5C283.1 52.7 289.8 52.6 294 48.5C298.2 44.3 298.1 37.6 294 33.4L263.9 3.4C261.8 1.1 258.9 0 256.1 0C253.4 0 250.6 1 248.5 3.1L218.2 33.4C214 37.6 214 44.3 218.2 48.5C222.3 52.7 229 52.7 233.2 48.5Z"></path>
      </g>
      <defs>
        <clipPath id="clip0_36_109">
          <rect width="512" height="512"></rect>
        </clipPath>
      </defs>
    </symbol>

    <symbol id="icon-rain" viewBox="0 0 512 472.66790771484375">
      <path d="M34.1 417.6C28.9 414.8 26.9 408.4 29.7 403.2L63.5 339.2C66.3 334 72.7 332 77.9 334.7C83.1 337.5 85.1 343.9 82.4 349.1L48.6 413.1C45.8 418.4 39.3 420.3 34.1 417.6ZM124.9 417.6C119.7 414.8 117.7 408.4 120.5 403.2L154.3 339.2C157.1 334 163.5 332 168.7 334.8C173.9 337.6 175.9 344 173.1 349.2L139.3 413.2C136.6 418.4 130.1 420.3 124.9 417.6ZM5.7 471.4C0.5 468.6 -1.5 462.2 1.3 457L6.7 446.8C9.4 441.6 15.9 439.6 21.1 442.4C26.3 445.2 28.3 451.6 25.5 456.8L20.1 467C17.3 472.2 10.9 474.2 5.7 471.4ZM215.8 417.6C210.6 414.8 208.6 408.4 211.3 403.2L245.1 339.2C247.9 334 254.3 332 259.5 334.8C264.7 337.6 266.7 344 263.9 349.2L230.1 413.2C227.4 418.4 221 420.3 215.8 417.6ZM96.5 471.4C91.3 468.6 89.3 462.2 92 457L97.4 446.8C100.2 441.6 106.6 439.6 111.8 442.3C117 445.1 119 451.5 116.3 456.7L110.9 466.9C108.2 472.2 101.7 474.2 96.5 471.4ZM187.3 471.4C182.1 468.6 180.1 462.2 182.9 457L188.3 446.8C191 441.6 197.5 439.6 202.7 442.4C207.9 445.2 209.9 451.6 207.1 456.8L201.7 467C199 472.2 192.5 474.2 187.3 471.4ZM306.6 417.6C301.4 414.8 299.4 408.4 302.2 403.2L336 339.2C338.8 334 345.2 332 350.4 334.7C355.6 337.5 357.6 343.9 354.9 349.1L321.1 413.1C318.2 418.4 311.8 420.3 306.6 417.6ZM278.1 471.4C272.9 468.6 270.9 462.2 273.7 457L279.1 446.8C281.8 441.6 288.3 439.6 293.5 442.4C298.7 445.2 300.7 451.6 297.9 456.8L292.5 467C289.8 472.2 283.3 474.2 278.1 471.4ZM389.1 417.6C383.9 414.8 381.9 408.4 384.7 403.2L418.5 339.2C421.3 334 427.7 332 432.9 334.7C438.1 337.5 440.1 343.9 437.4 349.1L403.6 413.1C400.7 418.4 394.3 420.3 389.1 417.6ZM360.6 471.4C355.4 468.6 353.4 462.2 356.2 457L361.6 446.8C364.4 441.6 370.8 439.6 376 442.4C381.2 445.2 383.2 451.6 380.4 456.8L375 467C372.3 472.2 365.8 474.2 360.6 471.4ZM434.2 285.9H94.1C42.2 285.9 0 243.7 0 191.8C0 139.5 41.9 99.9 89 97.7C90.6 50 133.7 0 193.3 0C230.1 0 263.9 19.5 282.4 50.5C295 44.3 308.9 41 323.2 41C374 41 415 82 415.5 132.3C421.5 130.8 427.8 130.1 434.2 130.1C477.1 130.1 512 165.1 512 208.1C512 251 477.1 285.9 434.2 285.9ZM21.3 191.8C21.3 231.9 53.9 264.6 94.1 264.6H434.2C465.4 264.6 490.7 239.3 490.7 208.1C490.7 176.8 465.4 151.4 434.2 151.4C425 151.4 416.3 153.5 408.4 157.6C404.8 159.5 400.4 159.1 397.1 156.7C393.8 154.3 392.2 150.2 393 146.2C401.1 102.3 367.2 62.3 323.2 62.3C309.1 62.3 295.6 66.4 284.1 74.1C281.5 75.9 278.3 76.4 275.2 75.5C272.2 74.6 269.7 72.5 268.4 69.6C255.1 40.3 225.7 21.3 193.3 21.3C142.4 21.3 105.9 68.3 110.7 107.2C111.5 113.9 106 119.7 99.2 119.1C59.8 115.6 21.3 147.7 21.3 191.8Z"></path>
      <path d="M142.6 115.1H142.5C136.6 115 131.9 110.2 132 104.3C132.4 69.7 159.3 42.6 193.3 42.6C199.2 42.6 204 47.4 204 53.3C204 59.2 199.2 64 193.3 64C171.1 64 153.6 81.9 153.3 104.6C153.2 110.4 148.4 115.1 142.6 115.1Z"></path>
    </symbol>

    <symbol id="icon-unknown" viewBox="0 0 512 512" fill="none">
      <path d="M176 448C100.8 416 48 342.4 48 256C48 140.8 140.8 48 256 48C371.2 48 464 140.8 464 256C464 371.2 371.2 464 256 464" stroke="#838BC5" stroke-width="32" stroke-miterlimit="10" stroke-linecap="round" stroke-linejoin="round"></path>
      <path d="M208 192L304 320ZM304 192L208 320Z" fill="black"></path>
      <path d="M208 192L304 320M304 192L208 320" stroke="#B498C9" stroke-width="32" stroke-miterlimit="10" stroke-linecap="round" stroke-linejoin="round"></path>
    </symbol>

  </defs>
</svg>
