<svg aria-hidden="true" style="position:absolute;width:0;height:0;overflow:hidden" xmlns="http://www.w3.org/2000/svg">
  <defs>
    <symbol id="logo" viewBox="0 0 107 32">
      <path fill="#ff6b0a" style="fill:var(--color1, #ff6b0a)" d="M106.667 0v32H59.536V0h47.131zM74.42 8.811v13.927l.001.044a.842.842 0 0 1-.001.087c-.007.08.015.128.107.115a.485.485 0 0 1 .066-.001l.033.001h3.582c.075.001.112.001.129-.017s.016-.051.014-.116l-.001-.078V8.83l-.001-.033a.485.485 0 0 1 .001-.066c.008-.082-.02-.125-.109-.115-.018.002-.036.001-.054.001l-.028-.001h-3.55l-.062-.001c-.065-.001-.098-.001-.114.015s-.016.049-.015.116l.001.064zm19.579-.194h-5.863c-1.954 0-3.908 0-5.86-.002h-.133c-.066-.003-.089.028-.084.089a.486.486 0 0 1 0 .054v3.398c0 .072-.001.107.017.124s.051.017.118.016H85.923c.12 0 .18 0 .209.03s.029.087.029.2v10.335c-.001.059-.001.09.014.106.017.018.052.017.127.017h3.571c.111 0 .166 0 .193-.028s.027-.08.027-.186V12.488l-.001-.059c-.001-.063-.001-.097.015-.114.018-.019.055-.018.133-.018h3.798c.162 0 .162 0 .164-.159V8.759c.001-.072.001-.108-.016-.126s-.053-.017-.123-.016L94 8.618z"/>
      <path fill="#010101" style="fill:var(--color2, #010101)" d="m47.132 0 12.403 16-12.403 16H0V0h47.132zm-26.38 13.662.215.174a.371.371 0 0 0 .106-.107.256.256 0 0 1 .02-.026c.254-.302.507-.606.76-.91.507-.606 1.012-1.212 1.518-1.82.101-.122.097-.177-.018-.276a12.617 12.617 0 0 0-.277-.233c-.803-.657-1.685-1.17-2.684-1.467a9.43 9.43 0 0 0-2.043-.353c-.905-.061-1.802-.031-2.691.174-3.112.716-5.434 3.292-5.707 6.594a7.795 7.795 0 0 0 .225 2.638c.519 1.96 1.645 3.461 3.434 4.45.975.539 2.03.823 3.14.912.94.076 1.87.018 2.788-.189 1.553-.35 2.925-1.056 4.146-2.067a.333.333 0 0 0 .137-.289c-.004-1.572-.004-3.145-.003-4.717v-1.179a.66.66 0 0 0-.003-.062c-.003-.046-.006-.092.006-.134.015-.049-.012-.077-.037-.104-.021-.022-.042-.044-.039-.077.007-.054-.03-.062-.073-.062h-6.556l-.038.001c-.026.001-.052.002-.077-.001-.066-.007-.087.026-.083.087a.657.657 0 0 1 .001.077l-.001.038V17.839l-.001.074c-.001.063-.002.096.014.112s.052.017.125.016H19.772c.072-.001.107-.001.124.016.016.016.015.048.014.11l-.001.078v.679c0 .308 0 .311-.279.445-.818.391-1.681.503-2.573.391-.991-.123-1.784-.591-2.365-1.401-.378-.527-.585-1.122-.662-1.763-.097-.818.002-1.605.373-2.348.448-.892 1.125-1.533 2.098-1.827.682-.207 1.373-.153 2.056-.003.619.135 1.159.437 1.657.816.182.138.359.281.539.427zm18.346-2.98c-1.528-1.39-3.348-2.052-5.229-2.066-.869.002-1.518.072-2.207.251-1.998.521-3.563 1.638-4.602 3.422-1.067 1.83-1.283 3.793-.687 5.812.667 2.257 2.089 3.9 4.29 4.815 1.69.701 3.44.795 5.206.332 2.051-.537 3.624-1.725 4.654-3.578.869-1.562 1.102-3.238.778-4.987-.291-1.572-1.017-2.919-2.203-4zm-8.437 3.528c.666-1.227 1.729-1.815 2.762-1.838 2.094-.005 3.464 1.173 3.837 2.806.226.984.125 1.94-.358 2.834-.57 1.05-1.458 1.661-2.654 1.797-1.156.133-2.165-.194-2.99-1.025a3.579 3.579 0 0 1-.983-1.914c-.172-.928-.066-1.827.386-2.66z"/>
    </symbol>
    <symbol id="javascript" viewBox="0 0 32 32">
      <path fill="#f7df1e" style="fill:var(--color3, #f7df1e)" d="M0 0h32v32H0V0z"/>
      <path style="fill:var(--color4, #000)" d="m8.414 26.741 2.449-1.482c.473.838.902 1.546 1.933 1.546.988 0 1.611-.387 1.611-1.89V14.69h3.007v10.267c0 3.115-1.826 4.532-4.489 4.532-2.406 0-3.802-1.246-4.511-2.75zm10.634-.322 2.448-1.418c.645 1.053 1.482 1.826 2.964 1.826 1.246 0 2.041-.623 2.041-1.482 0-1.031-.816-1.396-2.191-1.997l-.752-.323c-2.17-.923-3.609-2.083-3.609-4.532 0-2.256 1.718-3.974 4.404-3.974 1.912 0 3.287.666 4.274 2.406l-2.341 1.504c-.516-.924-1.074-1.289-1.933-1.289-.881 0-1.439.558-1.439 1.289 0 .902.558 1.268 1.847 1.826l.752.322c2.556 1.096 3.995 2.212 3.995 4.726 0 2.707-2.127 4.189-4.983 4.189-2.792 0-4.597-1.332-5.477-3.072z"/>
    </symbol>
    <symbol id="icon-weather" viewBox="0 0 32 32">
<path fill="#61c2f5" style="fill: var(--color1, #61c2f5)" d="M11.502 6.821c0.619 0.523 1.042 1.102 1.438 1.806 0.203-0.060 0.403-0.128 0.602-0.201 0.033-0.066 0.066-0.132 0.1-0.201 0.066 0.033 0.132 0.066 0.201 0.1 0.033-0.066 0.066-0.132 0.1-0.201 0.449-0.107 0.888-0.114 1.348-0.113 0.126-0 0.252-0.001 0.382-0.001 0.37 0.013 0.714 0.054 1.079 0.114 0 0.066 0 0.132 0 0.201 0.121 0.031 0.121 0.031 0.244 0.063 0.402 0.155 0.714 0.366 1.064 0.615 0.185 0.143 0.185 0.143 0.397 0.125 0.033-0.066 0.066-0.132 0.1-0.201 1.447-0.494 3.268-0.494 4.715 0 0.033 0.066 0.066 0.132 0.1 0.201 0.121 0.034 0.121 0.034 0.244 0.069 0.517 0.191 0.922 0.504 1.361 0.834 0.095 0.070 0.095 0.070 0.192 0.141 0.599 0.472 1.14 1.133 1.423 1.843 0.068 0.24 0.068 0.24 0.29 0.323 0.705 1.682 0.686 3.734 0 5.417-0.055 0.062-0.109 0.123-0.165 0.187-0.2 0.317-0.123 0.531-0.054 0.892 0.032 0.176 0.032 0.176 0.065 0.356 0.018 0.089 0.036 0.179 0.054 0.271 0.073 0.011 0.146 0.023 0.221 0.034 0.823 0.194 1.582 0.808 2.087 1.471 0.688 1.176 1.013 2.262 0.737 3.634-0.35 1.155-1.049 2.103-2.083 2.732-0.815 0.434-1.614 0.586-2.532 0.58-0.082 0-0.165 0.001-0.25 0.001-0.274 0.001-0.547 0-0.821-0-0.197 0-0.395 0.001-0.592 0.001-0.534 0.001-1.068 0.001-1.602-0-0.56-0-1.12-0-1.68 0-0.94 0-1.88-0-2.82-0.001-1.086-0.001-2.171-0.001-3.257 0-0.933 0.001-1.867 0.001-2.8 0-0.557-0-1.114-0-1.671 0-0.524 0.001-1.047 0-1.571-0.001-0.192-0-0.384-0-0.575 0-0.263 0.001-0.525-0-0.788-0.001-0.113 0.001-0.113 0.001-0.228 0.001-1.318-0.010-2.368-0.481-3.322-1.386-0.882-0.957-1.191-2.035-1.158-3.317 0.098-1.177 0.667-2.166 1.517-2.972 0.417-0.341 0.87-0.678 1.42-0.678 0-0.463 0-0.927 0-1.404-0.139-0.003-0.279-0.005-0.422-0.008-1.586-0.043-2.69-0.236-3.866-1.359-0.508-0.659-0.701-1.555-0.665-2.373 0.123-0.884 0.5-1.656 1.141-2.279 0.829-0.602 0.829-0.602 1.204-0.602-0.005-0.087-0.009-0.175-0.014-0.265-0.026-0.867 0.086-1.543 0.415-2.343 0.030-0.074 0.059-0.148 0.090-0.224 0.175-0.419 0.329-0.71 0.657-1.026 0.11-0.109 0.216-0.222 0.318-0.338 2.023-2.21 5.297-2.272 7.628-0.519z"></path>
<path fill="#579ad2" style="fill: var(--color2, #579ad2)" d="M11.502 6.821c0.619 0.523 1.042 1.102 1.438 1.806 0.203-0.060 0.403-0.128 0.602-0.201 0.033-0.066 0.066-0.132 0.1-0.201 0.066 0.033 0.132 0.066 0.201 0.1 0.033-0.066 0.066-0.132 0.1-0.201 0.449-0.107 0.888-0.114 1.348-0.113 0.126-0 0.252-0.001 0.382-0.001 0.37 0.013 0.714 0.054 1.079 0.114 0 0.066 0 0.132 0 0.201 0.083 0.021 0.166 0.041 0.251 0.063 0.441 0.173 0.807 0.416 1.154 0.74 0 0.066 0 0.132 0 0.201-0.159 0.109-0.323 0.21-0.489 0.307-1.028 0.641-1.72 1.351-2.32 2.401-0.1 0.167-0.2 0.335-0.301 0.502-0.903-0.201-0.903-0.201-1.095-0.251-1.86-0.463-3.764-0.23-5.413 0.727-1.594 1.054-2.8 2.521-3.21 4.414-0.039 0.209-0.078 0.418-0.113 0.627-2.995 0.098-2.995 0.098-4.213-1.003-0.649-0.619-0.916-1.476-0.953-2.364 0.044-0.984 0.448-1.866 1.154-2.552 0.829-0.602 0.829-0.602 1.204-0.602-0.005-0.087-0.009-0.175-0.014-0.265-0.026-0.867 0.086-1.543 0.415-2.343 0.030-0.074 0.059-0.148 0.090-0.224 0.175-0.419 0.329-0.71 0.657-1.026 0.11-0.109 0.216-0.222 0.318-0.338 2.023-2.21 5.297-2.272 7.628-0.519z"></path>
<path fill="#f6c000" style="fill: var(--color3, #f6c000)" d="M23.273 8.928c0.050 0.099 0.050 0.099 0.1 0.201 0.081 0.023 0.161 0.046 0.244 0.069 0.517 0.191 0.922 0.504 1.361 0.834 0.064 0.047 0.127 0.093 0.192 0.141 0.599 0.472 1.14 1.133 1.423 1.843 0.068 0.24 0.068 0.24 0.29 0.323 0.712 1.697 0.568 3.46 0.108 5.191-0.146 0.306-0.362 0.499-0.609 0.728-0.080-0.122-0.080-0.122-0.161-0.246-0.071-0.107-0.142-0.214-0.215-0.325-0.070-0.106-0.14-0.212-0.212-0.321-0.829-1.205-1.978-1.867-3.395-2.164-1.235-0.202-2.346 0.043-3.435 0.649-0.206 0.099-0.206 0.099-0.507 0.099-0.151-0.206-0.151-0.206-0.313-0.489-0.772-1.259-1.8-2.13-3.097-2.821 0.503-1.665 1.777-2.656 3.21-3.511 0.066 0 0.132 0 0.201 0 0.033-0.066 0.066-0.132 0.1-0.201 1.447-0.494 3.268-0.494 4.715 0z"></path>
<path fill="#e7b700" style="fill: var(--color4, #e7b700)" d="M20.665 4.113c0.295 0.038 0.295 0.038 0.602 0.1 0.206 0.412 0.123 0.945 0.125 1.398 0.002 0.111 0.004 0.223 0.006 0.338 0.001 0.107 0.001 0.213 0.002 0.323 0.001 0.147 0.001 0.147 0.003 0.297-0.036 0.252-0.036 0.252-0.172 0.438-0.165 0.115-0.165 0.115-0.428 0.096-0.238-0.082-0.238-0.082-0.339-0.282-0.024-0.399-0.019-0.798-0.019-1.197-0.001-0.111-0.002-0.223-0.004-0.338-0-0.107-0-0.213-0.001-0.323-0-0.098-0.001-0.196-0.001-0.297 0.024-0.252 0.024-0.252 0.225-0.553z"></path>
<path fill="#f5c100" style="fill: var(--color5, #f5c100)" d="M28.589 7.223c0.066 0.066 0.132 0.132 0.201 0.201-0.042 0.615-0.461 0.925-0.878 1.335-0.072 0.074-0.144 0.149-0.218 0.225-0.070 0.070-0.141 0.14-0.213 0.213-0.064 0.064-0.128 0.128-0.194 0.194-0.255 0.176-0.4 0.182-0.704 0.139-0.066-0.066-0.132-0.132-0.201-0.201 0.042-0.616 0.461-0.925 0.878-1.335 0.072-0.074 0.144-0.149 0.218-0.225 0.070-0.070 0.141-0.14 0.213-0.213 0.064-0.064 0.128-0.128 0.194-0.194 0.255-0.176 0.4-0.182 0.704-0.139z"></path>
<path fill="#dbb100" style="fill: var(--color6, #dbb100)" d="M28.79 14.646c0.395-0.007 0.789-0.013 1.183-0.017 0.2-0.002 0.4-0.006 0.6-0.010 0.126-0.001 0.252-0.002 0.381-0.003 0.116-0.002 0.232-0.003 0.352-0.005 0.292 0.034 0.292 0.034 0.483 0.186 0.036 0.049 0.073 0.098 0.11 0.149-0.066 0.166-0.132 0.331-0.201 0.502-0.894 0-1.788 0-2.708 0-0.201-0.602-0.201-0.602-0.201-0.803z"></path>
<path fill="#f2bc00" style="fill: var(--color7, #f2bc00)" d="M28.79 14.646c0.099 0.033 0.199 0.066 0.301 0.1 0.192 0.015 0.385 0.025 0.578 0.032 0.168 0.006 0.168 0.006 0.34 0.013 0.117 0.004 0.234 0.008 0.355 0.012 0.118 0.004 0.236 0.009 0.358 0.013 0.292 0.011 0.584 0.021 0.877 0.031 0.033 0.132 0.066 0.265 0.1 0.401-0.43 0.003-0.861 0.005-1.292 0.006-0.123 0.001-0.245 0.002-0.372 0.003-0.176 0.001-0.176 0.001-0.355 0.001-0.162 0.001-0.162 0.001-0.328 0.002-0.262-0.011-0.262-0.011-0.463-0.112-0.063-0.257-0.063-0.257-0.1-0.502z"></path>
<path fill="#e2b800" style="fill: var(--color8, #e2b800)" d="M28.589 7.223c0.201 0.201 0.201 0.201 0.201 0.502-0.066 0-0.132 0-0.201 0 0-0.099 0-0.199 0-0.301-0.538 0.149-0.851 0.509-1.229 0.897-0.064 0.064-0.128 0.127-0.194 0.193-0.366 0.36-0.366 0.36-0.584 0.817-0.066 0-0.132 0-0.201 0 0.079-0.623 0.446-0.91 0.878-1.335 0.072-0.074 0.144-0.149 0.218-0.225 0.070-0.070 0.141-0.14 0.213-0.213 0.064-0.064 0.128-0.128 0.194-0.194 0.255-0.176 0.4-0.182 0.704-0.139z"></path>
<path fill="#477cb6" style="fill: var(--color9, #477cb6)" d="M11.536 6.922c0.232 0.199 0.463 0.397 0.702 0.602-0.066 0.066-0.132 0.132-0.201 0.201-0.502-0.577-0.502-0.577-0.502-0.803z"></path>
<path fill="#000" style="fill: var(--color10, #000)" d="M3.009 20.564c0.099 0.050 0.099 0.050 0.201 0.1-0.099 0.050-0.099 0.050-0.201 0.1 0-0.066 0-0.132 0-0.201z"></path>
<path fill="#000" style="fill: var(--color10, #000)" d="M28.489 20.263c0.066 0 0.132 0 0.201 0-0.033 0.066-0.066 0.132-0.1 0.201-0.033-0.066-0.066-0.132-0.1-0.201z"></path>
<path fill="#000" style="fill: var(--color10, #000)" d="M28.088 27.085c0.201 0.1 0.201 0.1 0.201 0.1z"></path>
<path fill="#000" style="fill: var(--color10, #000)" d="M3.712 27.085c0.201 0.1 0.201 0.1 0.201 0.1z"></path>
<path fill="#000" style="fill: var(--color10, #000)" d="M3.21 20.364c0.201 0.1 0.201 0.1 0.201 0.1z"></path>
<path fill="#000" style="fill: var(--color10, #000)" d="M1.204 17.354c0.201 0.1 0.201 0.1 0.201 0.1z"></path>
<path fill="#000" style="fill: var(--color10, #000)" d="M1.204 11.937c0.201 0.1 0.201 0.1 0.201 0.1z"></path>
<path fill="#000" style="fill: var(--color10, #000)" d="M24.577 9.63c0.201 0.1 0.201 0.1 0.201 0.1z"></path>
<path fill="#000" style="fill: var(--color10, #000)" d="M21.166 7.022c0.201 0.1 0.201 0.1 0.201 0.1z"></path>
<path fill="#000" style="fill: var(--color10, #000)" d="M11.034 6.42c0.201 0.1 0.201 0.1 0.201 0.1z"></path>
<path fill="#000" style="fill: var(--color10, #000)" d="M4.815 6.32c0.201 0.1 0.201 0.1 0.201 0.1z"></path>
</symbol>
  </defs>
</svg>
